<?xml version="1.0" encoding="utf-8"?>
<!-- Generator: Adobe Illustrator 16.0.4, SVG Export Plug-In . SVG Version: 6.00 Build 0)  -->
<!DOCTYPE svg PUBLIC "-//W3C//DTD SVG 1.1//EN" "http://www.w3.org/Graphics/SVG/1.1/DTD/svg11.dtd">
<svg version="1.1" id="Layer_1" xmlns="http://www.w3.org/2000/svg" xmlns:xlink="http://www.w3.org/1999/xlink" x="0px" y="0px"
	 width="558.271px" height="558.332px" viewBox="0 0 558.271 558.332" enable-background="new 0 0 558.271 558.332"
	 xml:space="preserve">
<g>
	<g>
		<path fill="#FF3A7D" d="M309.97,144.157c3.344-1.299,7.447-0.74,10.24-1.412c0.805,0.171,1.805,0.699,2.473,0
			c10.104,0.064,19.418,2.393,26.131,6.003c0.736,0.202,1.008,0.875,2.117,0.706c7.42,3.763,12.162,10.203,17.303,16.242
			c0.008,1.291,1.004,1.586,1.412,2.473c0.006,2.701,1.1,4.316,1.768,6.355c-0.102,0.57,0.334,0.607,0.354,1.06
			c0.508,1.257,0.539,2.991,1.412,3.884c0,0.234,0,0.471,0,0.706c0.941,3.194-0.428,6.533,1.412,8.828
			c0.711,9.042-1.469,15.813-3.529,22.952c-0.986,0.781-1.254,2.277-1.766,3.531c0,0.117,0,0.234,0,0.353
			c-1.814,2.657-3.215,5.731-4.945,8.475c0,0.118,0,0.236,0,0.354c-8.295,9.125-17.367,17.473-27.895,24.364
			c-0.117,0-0.236,0-0.355,0c-3.389,1.791-6.09,4.27-8.828,6.709c-1.334,0.078-1.715,1.11-2.824,1.412
			c-2.93,1.073-4.936,3.069-7.062,4.944c-0.117,0-0.236,0-0.354,0c-1.574,0.897-2.84,2.104-4.236,3.179c-0.117,0-0.236,0-0.354,0
			c-1.264,0.618-2.703,1.062-3.531,2.118c-0.119,0-0.236,0-0.354,0c-2.102,1.548-4.662,2.636-6.355,4.591c-0.117,0-0.236,0-0.354,0
			c-2.906,1.448-5.414,3.295-7.77,5.297c-0.117,0-0.234,0-0.354,0c-3.807,2.548-7.869,4.841-11.301,7.769c-0.117,0-0.234,0-0.352,0
			c-8.016,5.049-14.995,11.135-24.013,15.184c0.379-0.914,0.857-1.73,0.706-3.18c0.528-1,0.871-2.188,1.06-3.527
			c0.111-0.83,0.559-1.326,0.354-2.475c0.471-1.295,0.957-2.574,1.059-4.234c0-0.119,0-0.236,0-0.355
			c1.234-1.119,2.159-2.553,2.118-4.943c-0.245-1.543,0.603-1.99,0.354-3.533c0.574-0.957,0.455-2.604,0.707-3.884
			c0-0.116,0-0.235,0-0.353c0.785-1.215,0.047-3.955,0.705-5.297c-0.125-1.891,1.051-2.481,0.707-4.59
			c0.563-0.967,0.727-2.334,0.707-3.885c0.393-1.019,0.635-2.188,0.705-3.531c0.832-1.758,0.627-4.553,1.062-6.709
			c0-0.234,0-0.471,0-0.705c1.489-3.57,0.989-9.131,1.767-13.418c0.731-1.269,0.182-3.818,0.352-5.65
			c0.59-2.829,0.59-8.118,0-10.946c-0.002-0.938,0.135-2.017-0.352-2.472c-0.392-1.965-0.019-4.692-1.062-6.003
			c0.084-1.497-0.324-2.5-0.705-3.531c-0.992-6.896-5.724-13.11-10.241-17.655c0-0.119,0-0.236,0-0.354
			c-2.951-1.403-3.83-4.881-7.77-5.297c-1.385-0.498-1.912-1.854-3.883-1.766c-1.244-1.58-4.666-0.984-6.709-1.767
			c18.147-9.159,35.336-19.278,52.966-28.955c0.119,0,0.236,0,0.354,0c1.322-0.678,2.863-1.14,3.885-2.119c0.117,0,0.234,0,0.354,0
			c3.592-1.588,6.77-3.587,10.947-4.59C309.024,144.623,309.56,144.452,309.97,144.157z M323.038,162.166
			c-0.879-0.038-1.096-0.661-1.77,0c-3.545,0.575-8.617-0.38-10.943,1.413c-0.871-0.047-1.701-0.053-2.119,0.353
			c-9.729,2.279-14.268,9.747-19.773,16.243c-0.076,1.925,0.242,4.245-0.354,5.65c-0.672,0.859-1.314,1.746-1.061,3.531
			c0.006,0.685-0.326,2.581-0.354,4.236c0.293,1.268-0.797,1.708,0,2.473c0.203,3.562,1.967,5.564,3.178,8.121
			c0,0.118,0,0.235,0,0.354c0.496,1.27-0.021,3.553,1.059,4.236c0,0.117,0,0.235,0,0.354c1.049,1.896,2.242,3.645,3.531,5.296
			c0,0.118,0,0.235,0,0.354c0,0.117,0,0.234,0,0.353c5.934,5.368,11.188,11.414,21.541,12.358c0.234,0,0.471,0,0.705,0
			c1.688,0.273,2.273-0.551,3.885-0.353c0.117,0,0.236,0,0.355,0c2.535-0.055,5.455,0.277,7.062-0.707
			c0.818,0.113,1.355-0.057,1.766-0.353c1.373-0.392,2.555-0.978,3.531-1.767c0.117,0,0.234,0,0.352,0
			c6.307-3.581,11.982-7.792,15.186-14.478c1.25-2.045,2.486-4.105,3.18-6.709c2.152-4.278,0.568-12.686-1.062-17.303
			c0.027-0.615-0.078-1.099-0.352-1.412c-0.969-1.858-1.074-4.577-2.473-6.004c0-0.116,0-0.234,0-0.353
			C342.925,169.584,335.399,163.456,323.038,162.166z"/>
		<path fill="#FFE300" d="M304.675,190.767c-3.922,0.128-10.15-0.421-13.418-2.118c1.576-14.054,13.967-23.814,29.662-22.601
			c0.303,1.856-0.604,8.815-1.768,12.358c-3.885-2.237-5.5,2.604-8.826,1.767C307.683,182.948,305.595,186.274,304.675,190.767z"/>
		<path fill="#00BDE4" d="M308.558,189.356c2.678-5.031,6.83-8.559,14.125-7.062c6.314,1.294,9.342,6.267,9.887,13.418
			c-0.383,1.755-2.234,2.221-1.059,4.591c-2.973,7.283-15.781,8.636-20.834,2.825c-1.025-4.374-3.494-7.609-2.119-13.418
			C308.558,189.591,308.558,189.472,308.558,189.356z"/>
		<path fill="#FFE300" d="M314.21,223.96c-1.924-3.259,1.121-9.345,2.119-13.065c10.264,1.523,16.396-3.996,19.771-11.3
			c4.346,0.306,7.188,2.213,12.359,2.472c-2.285,9.594-12.48,19.6-22.246,21.541C320.927,224.659,318.097,222.321,314.21,223.96z"/>
		<path fill="#00BDE4" d="M85.038,289.641c1.76-2.832,1.681-7.033,2.472-9.889c3.318-11.978,10.802-20.584,18.715-27.543
			c1.3-1.142,2.258-2.31,3.531-3.179c2.605-1.778,5.805-4.434,8.122-5.649c2.776-1.458,7.144-1.565,8.475-4.591
			c10.106-4.672,20.478-9.426,30.015-14.479c2.34-1.24,4.654-3.111,7.062-4.236c0.661-0.31,1.789-0.104,2.473-0.354
			c2.846-1.04,6.069-3.479,9.18-4.942c3.408-1.605,6.996-2.992,9.535-4.592c1.023-0.645,1.761-1.867,2.826-2.472
			c1.938-1.101,4.998-1.563,7.769-2.825c2.394-1.09,4.657-3.372,6.709-3.531c7.434-0.578,16.448,8.719,19.067,14.125
			c0,0.118,0,0.235,0,0.354c0.56,1.324,1.282,2.484,1.767,3.884c0,0.118,0,0.236,0,0.354c1.737,6.326,1.114,15.711,0.353,22.599
			c-0.627,0.669-0.257,2.333-0.353,3.531c-1.644,5.05-1.202,9.04-1.413,14.478c-0.409,0.522-0.409,0.891,0,1.413
			c-0.997,2.534-0.992,6.071-1.766,8.828c0,0.118,0,0.235,0,0.354c-0.523,2.89-0.971,5.855-1.767,8.474
			c-0.53,0.572-0.53,2.605,0,3.178c-1.223,4.311-2.538,8.527-3.178,13.42c0,0.117,0,0.236,0,0.354
			c-0.866,1.84-1.21,4.203-1.412,6.709c0,0.117,0,0.236,0,0.352c-0.937,2.83-1.634,5.9-1.767,9.535
			c-0.273,0.314-0.379,0.797-0.353,1.414c-1.149,1.91-0.885,5.236-1.413,7.77c0.008,0.832-0.607,1.039-0.353,2.117
			c-0.647,1.59-0.761,3.713-1.06,5.648c0,0.117,0,0.236,0,0.355c-1.929,4.545-1.766,11.184-3.531,15.891c0,0.117,0,0.234,0,0.354
			c-0.715,2.697-1.539,5.287-1.767,8.475c0,0.117,0,0.234,0,0.352c-0.921,2.598-1.913,6.658-1.059,9.891
			c-1.402,0.361-2.814,0.717-2.472,2.822c0,0.117,0,0.236,0,0.355c-0.826,1.529-1.285,3.422-1.412,5.646
			c-0.297,0.412-0.467,0.947-0.354,1.77c-0.563,2.127-1.198,3.879-1.412,7.062c0,0.115,0,0.234,0,0.352
			c-0.442,1.676-0.838,3.398-1.413,4.943c0,0.119,0,0.236,0,0.354c-0.82,1.887-1.436,3.979-1.765,6.355
			c-0.274,0.314-0.38,0.797-0.353,1.412c-0.621,0.322-0.646,1.238-1.061,1.768c-3.35,0.477-5.046-2.123-7.416-3.531
			c-1.086-0.646-2.416-0.441-3.531-1.061c-1.592-0.881-2.761-2.58-4.591-3.531c-5.823-3.031-10.433-6.299-15.89-9.18
			c-1.922-2.539-4.924-3.316-7.77-4.943c-1.716-0.982-3.048-2.66-4.591-3.531c-1.137-0.643-2.739-0.426-3.884-1.061
			c-1.605-0.891-3.182-2.791-4.944-3.883c-5.606-3.477-11.028-6.725-15.89-10.594c-6.809-5.42-14.324-10.396-19.774-15.891
			c-1.243-1.252-1.637-3.248-2.825-4.592c-0.738-0.832-2.073-1.275-2.824-2.117c-6.218-6.959-9.997-16.42-12.712-26.838
			c0-0.117,0-0.234,0-0.355c0.004-5.107-0.928-8.016-0.353-13.062c0-0.117,0-0.234,0-0.354c0.808-0.604,0.129-2.697,0.353-3.885
			C85.038,289.875,85.038,289.758,85.038,289.641z"/>
		<path fill="#372F23" d="M270.423,219.016c0.59,2.829,0.59,8.118,0,10.946C270.423,226.315,270.423,222.666,270.423,219.016z"/>
		<path fill="#FFE300" d="M370.353,288.934c0.164-6.125,2.311-12.783,5.65-17.656c-0.564-0.613-1.59-0.766-2.826-0.707
			c9.939,1.009,23.727,2.512,34.252,5.649c0.1,0.571-0.332,0.608-0.352,1.06c0.83-0.008,1.039,0.608,2.117,0.354
			c0.439,1.209,0.49,2.804,2.473,2.472c2.482,4.207,5.707,8.16,5.297,13.773c-0.553,7.549-13.387,15.506-20.129,10.24
			c-0.213,0.609-1.674-0.029-1.766,0.705C386.065,300.293,378.196,294.627,370.353,288.934z"/>
		<path fill="#372F23" d="M85.038,289.994c-0.224,1.188,0.455,3.279-0.353,3.885C84.908,292.689,84.229,290.598,85.038,289.994z"/>
		<path fill="#00BDE4" d="M251.707,332.014c0.968-0.562,0.396-2.664,1.061-3.531c4.977-0.104,11.469-1.166,17.655-1.766
			c3.159-0.305,7.166-1.043,9.889-0.705c1.332,0.164,1.947,1.299,3.531,1.766c1.543,0.453,3.336-0.027,4.236,0.352
			c5.35,2.258,6.061,9.416,6.354,17.305c0,0.234,0,0.471,0,0.705c-1.557,11.625-6.625,19.74-9.533,30.018c0,0.113,0,0.232,0,0.352
			c-0.574,0.721-0.742,1.848-1.412,2.473c-5.806-0.154-14.052-1.914-19.774-2.119c0.967-3.154,2.83-5.41,3.178-9.18
			c0-0.119,0-0.236,0-0.355c1.975-5.658,8.098-13.158,4.592-19.773c-7.33-1.777-15.467,0.617-24.013,1.414
			c0.426-3.812,1.964-6.512,2.472-10.242c0.297-0.408,0.465-0.943,0.354-1.766c0.794-1.207,1.13-2.871,1.412-4.59
			C251.707,332.25,251.707,332.133,251.707,332.014z"/>
		<path fill="#372F23" d="M475.583,352.848c1.084-0.541,1.084,2.307,0,1.766C475.583,354.023,475.583,353.436,475.583,352.848z"/>
		<path fill="#FF3A7D" d="M250.295,384.98c-0.95-8.719,3.459-12.076,10.593-12.711c0.556,1.291-1.086,3.043-1.412,4.59
			c0.218,1.195,0.099,2.727,1.767,2.473c2.131,0.459,4.1,1.078,6.355,1.412c2.219,0.203,5.26,1.236,7.062,0.705
			c0.836,0.812,3.168,0.127,4.59,0.354c0.117,0,0.236,0,0.354,0c1.187,0.816,3.879,0.123,5.65,0.355
			c1.82-1.355,1.924-4.434,3.178-6.355c2.5-0.383,3.01,1.225,5.297,1.059c0.416,0.406,1.248,0.4,2.117,0.354
			c0.99,0.668,3.5,1.664,4.943,0.705c0.117,0,0.234,0,0.354,0c7.715,1.703,17.293,1.541,20.834,7.416
			c1.141,2.223,0.643,4.127,1.061,6.709c-0.623,5.498-5.902,6.34-10.594,7.77c-0.119,0-0.236,0-0.354,0
			c-0.803-0.607-2.07-0.756-3.531-0.707c-0.117,0-0.234,0-0.354,0c-0.836-0.812-3.168-0.127-4.592-0.354c-0.234,0-0.471,0-0.707,0
			c-4.887-0.764-12.23-0.947-16.596-1.059c-0.236,0-0.471,0-0.705,0c-1.645-0.248-4.573-1.064-5.649-0.707c-0.118,0-0.235,0-0.354,0
			c-5.439-1.033-10.893-2.055-16.596-2.824c-0.117,0-0.237,0-0.354,0c-6.607-0.453-10.535-3.59-12.359-8.828
			C250.295,385.217,250.295,385.1,250.295,384.98z"/>
		<path fill="#372F23" d="M274.66,381.449c1.422,0.227,3.754-0.459,4.59,0.354C277.828,381.576,275.496,382.262,274.66,381.449z"/>
		<path fill="#372F23" d="M303.616,398.752c1.422,0.227,3.754-0.459,4.59,0.354C306.784,398.879,304.452,399.564,303.616,398.752z"
			/>
		<path fill="#00BDE4" d="M233.346,407.227c0.95-1.875,1.062-4.588,2.119-6.355c13.643,7.074,28.701,12.73,40.962,21.188
			c0,0.117,0,0.234,0,0.354c1.015,2.518,4.147,2.914,4.59,6.004c0,0.117,0,0.234,0,0.352c0,1.648,0,3.297,0,4.945
			c0,0.232,0,0.471,0,0.705c-3.254,10.963-13.063,19.533-21.894,24.719c-4.021,2.361-7.932,8.975-11.299,6.709
			c-0.119,0-0.236,0-0.354,0c-4.548-3.691-8.576-7.902-13.771-10.945c0.78-1.691,2.437-2.51,4.237-3.178
			c2.783-3.773,7.847-6.086,12.007-9.182c1.826-1.361,6.147-4.83,6.002-7.416c-0.15-2.684-2.701-2.438-3.884-3.531
			c-0.663-0.613-0.331-1.498-0.706-1.766c-5.855-4.154-15.855-5.674-21.187-10.24c0.364-2.814,1.288-5.066,1.765-7.77
			c0-0.117,0-0.234,0-0.354c1.254-0.512,1.051-2.482,1.412-3.885C233.346,407.463,233.346,407.346,233.346,407.227z"/>
		<path fill="#372F23" d="M233.346,407.58c-0.361,1.402-0.158,3.373-1.412,3.885C232.601,410.367,232.396,408.396,233.346,407.58z"
			/>
		<path fill="#372F23" d="M281.016,428.766c0.586,0.842,0.586,4.105,0,4.945C281.016,432.062,281.016,430.414,281.016,428.766z"/>
		<path fill="#FF3A7D" d="M217.455,455.25c2.173-6.59,9.361-10.693,16.244-6.002c-0.41,1.59-2.436,1.566-3.179,2.824
			c-0.118,0-0.235,0-0.353,0c-0.828,0.115-0.344,1.541-1.061,1.766c5.477,6.766,12.582,11.902,20.129,16.598
			c2.685-0.494,3.403-2.953,6.002-3.531c3.17,1.527,4.199,5.225,7.416,7.77c1.432,1.133,3.758,1.436,5.297,2.826
			c2.843,2.562,5.586,5.705,7.769,8.475c2.356,2.99,3.533,4.762,2.119,9.18c-0.304,1.109-1.336,1.49-1.412,2.824
			c-2.19,3.188-6.244,4.359-10.595,2.826c-0.116,0-0.233,0-0.354,0c-5.438-2.801-9.467-7.012-14.477-10.24c-0.118,0-0.236,0-0.354,0
			c-7.715-5.469-14.785-11.58-22.246-17.303c0-0.117,0-0.236,0-0.354c-2.863-3.494-7.004-5.711-9.888-9.184
			c-0.171-1.477-0.679-2.617-1.06-3.883c0-1.414,0-2.826,0-4.238C217.455,455.486,217.455,455.367,217.455,455.25z"/>
		<path fill="#372F23" d="M217.455,455.604c0,1.412,0,2.824,0,4.238C216.869,459.232,216.869,456.213,217.455,455.604z"/>
		<path fill="#372F23" d="M182.496,481.734c0.588,0,1.179,0,1.767,0C184.324,483.008,182.437,483.008,182.496,481.734z"/>
		<path fill="#372F23" d="M374.237,170.993c0.338,3.123,2.166,6.061,2.824,9.535c0.771,4.065-0.014,9.623,1.412,13.064
			c-1.328,8.742-2.451,16.419-4.943,23.307c-2.74,7.58-8.979,12.104-13.062,18.008c-1.406-0.229-1.42,0.936-2.826,0.707
			c-1.449,4.317-5.381,6.152-8.121,9.181c-8.23,3.892-14.066,10.179-21.893,14.478c8.527,2.246,16.99,3.282,26.836,4.59
			c2.545,0.338,5.229,1.567,7.77,1.767c1.848,0.146,3.656-0.687,5.648-0.353c1.496,0.25,2.977,1.254,4.592,1.412
			c1.471,0.145,3.115-0.514,4.59-0.354c1.182,0.129,2.348,1.13,3.885,1.413c3.342,0.614,7.791,0.044,11.652,0.706
			c1.285,0.221,2.539,1.158,3.885,1.412c3.729,0.703,6.994,0.441,10.24,1.767c6.408,2.614,12.127,8.917,13.771,15.891
			c2.883,12.23-7.045,20.645-16.949,22.953c-21.338-3.262-31.396-17.807-48.025-25.779c-0.277-1.135-1.281-1.543-1.764-2.473
			c-6.82-1.891-10.422-7-16.244-9.887c5.744,7.08,13.287,12.198,18.715,19.778c3.59,5.008,8.156,9.324,12.359,14.123
			c4.584,5.234,9.438,10.961,14.125,16.598c0.258,2.684,1.641,4.242,2.824,6.002c1.516,8.879-0.145,15.854-3.887,21.188
			c-3.943,0.996-6.773,3.111-9.887,4.943c-2.148-0.676-4.266-1.385-7.062-1.412c-1.232-1.002-2.75-1.723-4.59-2.119
			c-6.592-5.414-9.729-14.283-12.359-23.658c-9.031-18.158-14.428-39.953-24.012-57.56c-0.004-2.703-1.076-4.339-1.412-6.709
			c-22.752,13.03-42.69,28.876-65.325,42.023c-1.104,6.312-2.326,12.506-3.18,19.066c8.599,1.977,18.758-2.568,27.545-1.766
			c10.495,0.961,15.161,7.32,17.302,18.008c-0.553,9.746-5.576,21.814-8.123,30.723c6.209,1.676,14.455,3.939,21.895,5.297
			c2.828,0.516,5.631,0.293,7.77,1.412c6.338,3.316,9.246,15.438,3.178,21.188c-11.506,6.711-29.877,1.273-42.373,1.766
			c-7.75-3.062-17.997-1.963-25.425-4.592c-7.318-2.588-9.88-10.309-8.475-20.479c2.389-4.852,9.248-8.803,15.892-7.064
			c2.707-6.176,3.948-11.635,6.356-18.01c-6.265-0.311-15.647,0.322-22.953,1.059c-2.231,12.482-5.6,23.828-8.475,35.666
			c1.025,4.766-2.345,6.711-1.767,9.887c6.993,2.064,12.467,5.611,18.716,8.828c4.006,2.064,7.877,4.711,12.005,6.355
			c3.943,1.57,7.593,3.125,11.302,5.297c1.237,3.33,4.39,3.67,5.649,6.355c1.285,2.746,1.199,7.525,1.059,9.535
			c-1.035,14.818-19.049,21.863-25.777,30.367c4.801,4.969,9.681,9.859,15.185,14.125c0.297,0.408,0.467,0.947,0.354,1.766
			c2.552,1.098,3.865,3.432,6.003,4.943c3.951,8.148-0.419,17.404-7.414,19.773c-6.063,0.646-9.118-1.713-13.421-2.824
			c-3.894-3.883-10.84-6.994-15.536-10.947c-0.613-0.516-0.777-1.617-1.413-2.117c-2.17-1.713-5.247-2.73-7.416-4.59
			c-2.559-2.199-4.684-4.955-7.062-7.062c-3.914-3.473-6.927-5.219-10.24-8.83c-2.695-2.939-5.913-8.449-3.883-15.535
			c0.938-3.277,3.787-5.072,5.649-8.123c5.254-3.172,13.88-1.533,17.302,2.119c5.646-3.066,9.56-7.863,14.832-11.301
			c-2.431-1.453-3.654-4.115-7.416-4.236c-0.604-0.338-0.774-1.109-1.06-1.766c-6.956-1.871-11.155-6.502-18.009-8.477
			c-12.152-7.27-24.889-13.955-38.137-20.127c-1.699-2.771-6.193-2.752-7.769-5.648c-2.42,0.184-2.642-1.832-4.944-1.768
			c-10.162-8.787-23.921-13.979-34.604-22.246c-1.097-0.465-1.007,0.098-2.472,0c-4.033-3.5-8.439-6.627-13.771-8.826
			c-7.872-7.549-16.755-14.082-25.071-21.189c-1.331-3.141-3.028-5.916-6.003-7.414c-2.476-4.475-4.919-8.422-7.416-13.77
			c-0.96-2.061-2.365-4.037-2.825-6.004c-0.599-2.562-0.118-5.383-0.707-8.121c-2.595-12.064,1.785-26.813,5.65-37.432
			c6.822-8.479,11.669-18.935,22.246-23.659c6.785-6.133,15.444-10.22,24.364-13.771c5.629-2.241,10.83-5.718,16.951-8.476
			c0.729-0.328,1.674-0.955,2.472-1.412c3.252-1.867,7.354-3.91,11.299-6.004c2.875-1.525,6.205-2.324,9.181-4.943
			c10.721-3.875,18.254-10.938,29.662-14.125c12.434-7.106,25.52-13.559,37.43-21.188c2.484-0.105,3.498-1.682,6.004-1.766
			c17.053-11.786,36.948-20.725,55.437-31.074c-11.812-4.075-20.962-15.27-16.947-31.779c4.619-4.914,6.771-12.295,14.83-13.771
			c-1.33-8.514-0.113-16.305,3.531-21.54c4.225-2.821,6.605-6.509,13.771-6.709c10.902-0.306,23.576,5.012,34.252,6.003
			c0.789-0.152,0.143-1.74,0.354-2.473c2.895-2.875,5.34-6.193,8.473-8.827c3.992-0.654,6.902-2.761,11.303-2.472
			c2.695,0.176,4.727,1.791,7.416,2.472c1.799,0.454,3.82,0.045,5.646,0.353c4.09,0.688,7.998,2.752,12.006,3.885
			c7.16,2.021,14.262,1.547,19.424,5.649c1.531,1.22,2.699,3.269,4.236,4.591c2.984,2.569,5.748,3.387,6.355,7.768
			c7.867,5.848,5.885,27.668,2.471,36.725c-1.555,4.124-2.893,7.605-4.236,10.593c-3.082,3.392-6.357,6.589-8.826,10.593
			c-5.605,3.226-10.041,7.615-16.598,9.888C392.946,160.749,381.774,164.052,374.237,170.993z M399.663,152.985
			c2.82-0.355,4.32-2.033,6.002-3.531c4.971-0.68,6.42-4.881,10.594-6.356c2.479-3.993,5.764-7.185,8.828-10.593
			c1.846-4.276,3.84-8.402,5.648-12.712c2.375-9.703,3.234-27.138-3.885-33.899c-0.508-4.486-3.549-5.299-6.354-7.769
			c-3.73-3.279-6.584-6.83-11.652-8.121c-8.043,0.014-15.824-4.625-24.014-6.003c-1.727-0.291-3.65,0.04-5.295-0.354
			c-4.715-1.125-8.781-3.83-13.771-1.766c-0.932,1.916-3.129,1.045-4.592,1.766c-4.51,2.225-6.838,7.739-9.533,11.653
			c-11.346-2.741-22.832-5.229-33.898-6.356c-3.828,0.764-7.518,1.664-10.24,3.531c0,2.12-1.793,2.444-3.18,3.178
			c-3.732,5.227-5.043,13.906-3.178,21.188c-7.775,1.757-10.555,8.513-14.83,13.771c-4.883,15.111,4.66,26.155,14.477,31.074
			c1.865-0.195,2.775-0.363,3.531,1.059c-1.551-0.41-3.332,1.152-4.59,2.119c-9.984,4.259-18.286,10.197-28.602,14.125
			c-7.073,5.994-17.21,8.922-24.013,15.185c-1.737-0.685-3.36,1.501-5.649,1.413c-5.237,4.414-12.965,6.339-18.009,10.947
			c-5.709,2.296-10.834,5.173-15.537,8.475c-14.459,4.552-27.592,14.559-41.314,19.773c-0.527,0.65-1.115,1.24-1.766,1.767
			c-3.932,0.306-4.957,3.517-9.182,3.531c0.1,0.805-0.084,1.327-0.705,1.411c-4.012,1.541-7.404,3.265-10.594,4.943
			c-11.219,5.907-25.516,10.863-34.252,19.068c-6.468,2.218-9.271,6.868-13.771,12.006c-3.175,3.624-6.693,8.007-8.475,11.652
			c-2.218,4.541-2.745,10.156-4.237,15.892c-0.591,2.273-1.766,4.287-2.119,6.357c-0.902,5.287-0.008,11.158,0.706,14.477
			c0.603,2.803,0.133,5.67,0.707,8.123c0.854,3.654,3.933,7.795,5.65,11.299c1.707,3.486,3.307,5.881,4.944,9.182
			c1.221-0.279,1.49,0.393,2.119,0.705c1.097,2.75,3.092,3.182,3.53,6.004c12.33,10.623,24.953,20.951,38.843,30.014
			c0.852,0.146,0.768-0.645,1.766-0.354c10.729,8.223,24.449,13.453,34.605,22.246c2.496,0.094,2.961,2.219,5.65,2.119
			c1.623,2.852,5.992,2.953,7.769,5.65c14.289,6.074,26.313,14.412,40.608,20.479c4.713,3.174,9.649,6.123,15.537,8.121
			c0.143,1.035,0.922,1.434,1.412,2.119c3.982-0.215,4.754,2.779,7.062,4.236c-5.092,4.207-9.985,8.613-15.537,12.361
			c-2.551-5.002-12.328-5.711-17.303-2.473c-1.301,1.641-2.109,3.773-3.883,4.943c-1.053,4.076-2.16,7.816-1.061,12.006
			c0.809,3.068,3.261,4.648,4.943,6.354c0.646,0.656,0.607,1.691,1.061,2.119c2.174,2.064,5.459,3.676,8.122,6.002
			c2.471,2.162,4.562,4.898,7.062,7.064c2.08,1.801,5.033,2.672,7.062,4.236c0.811,0.627,0.98,1.801,1.766,2.473
			c5.01,4.299,11.055,6.654,14.831,10.594c4.671,1.145,8.296,4.166,13.419,3.18c10.872-2.098,11.979-21.24,1.412-23.307
			c0.287-1.221-0.66-1.49,0-2.119c-5.695-4.543-10.764-9.715-15.89-14.83c4.518-4.705,9.312-7.598,14.478-12.359
			c3.693-3.404,7.637-6.688,9.532-10.594c0.279-0.574-0.577-0.861-0.352-1.412c0.219-0.537,1.188-0.816,1.412-1.412
			c0.494-1.318,0.998-3.836,1.059-4.59c1.02-12.516-7.44-15.193-14.476-20.127c-12.815-3.783-20.9-12.295-34.254-15.537
			c2.48-15.307,7.166-31.434,10.594-46.965c4.16-0.545,9.836,0.352,13.064-1.412c0.299,0.758,0.869,1.248,2.119,1.059
			c1.311,0.135,0.923-1.432,2.471-1.059c1.451,1.502,4.547,0.041,5.651,0.354c-1.91,7.98-3.817,12.289-6.358,19.42
			c-2.799-1.416-7.5-0.652-10.238,0.707c-10.514,5.223-6.697,26.076,6.354,26.129c7.004,2.369,15.204,1.391,21.54,4.238
			c9.604-1.152,33.888,5.596,42.372-2.119c3.605-3.275,3.07-8.473,2.119-14.123c-2.619-3.75-6.529-8.049-12.711-7.062
			c-8.445-3.352-15.26-2.543-22.953-5.65c1.016-2.855,1.344-5.348,2.473-8.123c6.197-15.236,10.99-38.424-11.3-40.604
			c-7.172-0.703-15.258,3.229-26.482,2.117c-1.207-0.266-0.449,1.436-1.767,1.061c1.524-6.832,2.556-14.158,3.886-21.189
			c17.742-9.918,33.095-22.227,50.493-32.488c4.336-4.021,10.111-6.603,15.186-9.887c1.568,6.246,4.768,12.941,7.416,18.009
			c0,0.707,0,1.412,0,2.119c5.943,11.107,8.17,22.758,14.123,33.9c-0.277,1.455,0.543,1.812,0.354,3.178
			c4.895,8.168,7.543,22.354,13.771,29.309c2.188,0.52,2.639,2.777,5.648,2.473c0.564,0.26-0.08,1.73,1.061,1.412
			c3.172-0.074,4.477,0.438,7.062,1.412c2.836-2.01,6.311-4.395,9.535-4.943c3.777-5.801,5.299-11.656,3.883-20.479
			c-0.879-1.828-2.592-2.822-2.471-5.65c-3.049-2.602-4.357-6.943-8.123-8.826c0.982-1.027-1.158-0.918-0.705-2.473
			c-1.885-1.102-3.494-2.922-4.943-4.592c-1.477-1.699-3.346-3.244-4.592-4.943c-0.447-0.611-0.232-1.559-0.705-2.117
			c-2.293-2.719-5.559-5.105-7.768-8.123c-1.283-1.75-2.107-3.926-3.531-5.297c-1.582-1.521-3.789-2.42-5.297-3.885
			c-0.178-0.174,0.174-0.885,0-1.061c-0.178-0.176-0.885,0.178-1.062,0c-1.307-1.312-2.354-2.662-3.529-3.884
			c-3.053-3.162-6.375-6.089-8.828-9.533c7.027,4.152,12.18,10.185,20.479,13.064c0.057,1.24,1.742,0.85,1.412,2.473
			c16.822,7.781,26.83,22.373,48.025,25.779c5.451-1.492,9.418-4.471,13.418-7.416c3.014-5.654,4.662-12.209,1.766-19.422
			c-3.363-4.353-6.633-9-12.357-11.3c-3.215-1.288-6.83-0.961-10.596-1.766c-1.271-0.271-2.32-1.205-3.529-1.412
			c-7.111-1.22-13.553-0.871-20.129-1.766c-3.121-0.424-6.91-3.021-9.887-0.707c-10.504-3.168-21.879-3.234-31.781-6.003
			c-0.26,0.612-3.26,0.442-3.883-0.706c1.922-1.845,4.82-2.711,6.355-4.943c8.332-4.969,16.227-10.373,23.305-16.596
			c-0.895-1.576,1.473-1.435,1.412-3.178c1.225,0.283,1.357-0.526,2.473-0.354c4.693-5.547,9.645-10.836,13.064-17.656
			c-0.85-2.519,1.479-4.104,2.119-6.355c0.365-1.287,0.076-2.758,0.354-4.236c0.703-3.766,2.414-7.938,2.471-12.006
			c0.049-3.3-0.674-9.524-1.41-13.419c-0.451-2.376-2.48-4.271-1.412-6.355c-1.193-0.572-1.533-1.996-1.768-3.531
			C381.021,163.769,392.604,160.641,399.663,152.985z"/>
		<path fill="#372F23" d="M351.286,78.477c-0.236,10.787,3.434,20.055,12.006,22.952c1.105,0.375,2.857,0.312,4.236,0.707
			c4.213,1.206,9.637,2.798,14.83,4.237c3.986,1.104,8.383,1.576,10.945,2.824c4.91,2.389,5.113,8.582,4.945,14.125
			c1.875,0.228,1.889-1.405,2.824-2.119c-0.766-5.118-1.703-10.067-4.59-13.064c-5.98-2.67-12.773-4.07-20.834-6.355
			c-4.84-1.373-11.301-1.588-14.125-3.531c-0.791-0.545-0.891-1.738-1.766-2.825c-1.658-2.063-3.547-3.793-4.943-6.709
			c0.125-4.642-0.961-9.437,0.354-13.771c1.26-4.154,5.268-6.08,7.414-8.828c11.225-4.391,22.5,0.527,31.781,3.884
			c17.402,2.013,32.107,12.225,35.311,28.603c2.641,13.489-2.963,25.699-8.475,34.957c-2.764,2.65-6.068,4.762-7.768,8.476
			c-13.564,8.799-27.281,17.448-42.021,25.071c-1.299-2.584-2.844-4.926-3.883-7.769c-0.557-1.489-1.264,0.771-2.119-0.707
			c-1.459-4.034-5.092-6.14-8.475-8.476c-0.895-0.617-1.535-1.83-2.119-2.118c-0.588-0.29-1.896,0.2-2.471,0
			c-1.676-0.582-3.117-2.364-4.945-3.179c-8.137-3.623-17.863-5.41-29.307-5.295c-3.213,0.03-6.572,2.183-9.535,2.118
			c-2.686-0.059-11.273-4.673-13.418-6.709c-0.795-0.754-1.314-2.719-2.473-4.237c-1.131-1.481-2.789-2.465-3.18-3.178
			c-1.854-3.398-1.889-6.92-1.766-10.594c1.713-4.88,3.264-9.92,6.355-13.418c3.352-0.389,4.826-3.898,8.123-3.178
			c2.441,0.533,2.725,3.847,4.943,5.296c17.072,5.526,36.848,8.35,55.086,12.712c3.951,2.105,6.58,6.833,5.648,12.712
			c3.779-1.621,1.479-7.844,0.354-10.593c-1.949-1.377-3.381-3.807-6.002-4.592c-13.758-4.116-34.688-6.752-50.143-9.887
			c-3.953-2.734-9.055-6.769-9.535-12.712c-0.129-1.616-0.023-6.022,0.354-8.122c0.547-3.047,3.691-4.281,3.885-7.414
			c3.377-1.492,5.396-5.423,9.535-6.004c1.424-0.199,3.49,0.504,5.648,0.706c2.506,0.234,5.459-0.315,7.416,0
			c1.703,0.275,3.523,1.369,5.297,1.767C339.769,75.377,346.753,76.635,351.286,78.477z M413.433,141.685
			c1.395-3.907,5.371-5.714,7.77-8.827c3.006-3.906,3.645-8.928,6.709-13.065c3.779-12.435,1.586-27.3-5.299-36.019
			c-6.463-8.187-16.857-10.207-28.246-13.418c-6.455-1.82-13.025-5.048-18.717-5.649c-13.246-1.4-21.166,6.108-20.834,18.362
			c0.203,7.513,3.43,9.504,6.709,14.83c12,3.303,25.117,5.487,35.664,10.241c2.127,3.103,7.611,14.157,0.707,15.537
			c-0.191-5.803,0.223-11.297-4.236-13.772c-3.836-2.129-14.857-4.416-20.127-5.648c-2.51-0.586-4.713-1.627-6.709-2.119
			c-1.223-0.3-2.711,0.061-3.887-0.354c-4.85-1.709-10.188-8.65-11.65-13.418c-0.811-2.633-0.115-6.426-0.355-9.887
			c-11.307-2.77-21.248-5.527-33.896-6.355c-3.973,1.207-6.441,3.916-9.889,5.65c0.52,2.952-3.258,4.15-3.885,7.414
			c-0.354,1.844-0.434,6.518-0.354,7.77c0.277,4.238,3.656,7.203,5.297,10.24c3.428,2.369,9.471,3.25,14.125,3.884
			c2.883,0.393,6.508,1.793,10.24,2.472c3.705,0.673,7.385,0.872,10.947,1.766c8.758,2.196,21.527,3.268,25.07,9.181
			c1.754,2.929,3.455,10.577-1.061,10.946c0.715-5.523-1.109-10.615-5.648-12.713c-17.951-4.382-38.426-7.072-55.086-12.711
			c-2.262-1.799-2.521-4.709-4.943-5.298c-2.516-0.612-3.625,2.724-7.062,2.825c-1.65,2.404-3.928,4.857-4.943,7.77
			c-0.627,1.793-1.467,4.156-1.766,6.002c-1.045,6.436,2.334,10.389,4.59,13.418c4.008,5.381,9.967,8.679,15.891,10.594
			c8.549-2.238,20.158-3.131,29.662-0.706c6.035,1.54,10.938,6.358,16.596,7.062c3.914,3.385,8.973,5.623,10.947,10.947
			c0.629,0.211,1.465-1.035,1.766,0c1.34,2.896,2.596,5.878,4.59,8.122C386.052,158.558,400.024,150.407,413.433,141.685z"/>
		<path fill="#F5CD00" d="M372.12,166.756c-1.994-2.244-3.25-5.225-4.592-8.122c-0.301-1.035-1.137,0.211-1.766,0
			c-1.975-5.324-7.033-7.563-10.947-10.946c-5.656-0.705-10.561-5.522-16.596-7.062c-9.504-2.424-21.113-1.532-29.662,0.706
			c-5.924-1.915-11.883-5.214-15.891-10.593c-2.256-3.03-5.633-6.983-4.59-13.418c0.299-1.847,1.139-4.209,1.766-6.004
			c1.018-2.91,3.293-5.363,4.943-7.769c3.438-0.101,4.547-3.437,7.062-2.825c2.424,0.59,2.686,3.499,4.943,5.297
			c16.66,5.641,37.135,8.33,55.086,12.713c4.539,2.096,6.363,7.188,5.65,12.711c4.514-0.367,2.812-8.018,1.059-10.945
			c-3.543-5.914-16.312-6.984-25.07-9.182c-3.562-0.893-7.242-1.092-10.947-1.765c-3.73-0.679-7.355-2.079-10.238-2.472
			c-4.654-0.635-10.697-1.516-14.125-3.885c-1.643-3.037-5.021-6.002-5.297-10.239c-0.08-1.251,0-5.927,0.354-7.769
			c0.627-3.265,4.402-4.463,3.885-7.416c3.445-1.733,5.916-4.443,9.887-5.649c12.65,0.827,22.592,3.586,33.898,6.356
			c0.238,3.461-0.455,7.252,0.354,9.887c1.465,4.768,6.803,11.707,11.652,13.418c1.176,0.414,2.664,0.053,3.885,0.353
			c1.998,0.491,4.201,1.533,6.709,2.119c5.27,1.231,16.291,3.521,20.127,5.649c4.459,2.475,4.045,7.969,4.238,13.771
			c6.904-1.38,1.42-12.436-0.707-15.537c-10.547-4.754-23.664-6.938-35.664-10.24c-3.281-5.326-6.506-7.318-6.709-14.832
			c-0.332-12.252,7.588-19.762,20.834-18.361c5.689,0.602,12.26,3.83,18.715,5.65c11.389,3.209,21.785,5.23,28.248,13.418
			c6.883,8.717,9.078,23.582,5.297,36.018c-3.064,4.138-3.703,9.16-6.709,13.064c-2.396,3.114-6.375,4.922-7.768,8.828
			C400.024,150.407,386.052,158.558,372.12,166.756z M331.511,108.139c2.34,1.365,6.969,1.73,9.533,1.766
			c7.197,4.114,23.322,2.572,27.896,10.24c1.812,3.038,3.266,10.771-1.061,12.006c-1.133-0.873-0.529-1.875-1.061-2.826
			c0.107,0.429-1.02,1.219-1.059,0.354c3.713-6.746-3.262-10.389-8.475-11.652c-10.75-2.606-25.918-5.383-34.605-6.355
			c0.43,0.041,0.836,0.105,0.705,0.706c-7.049,4.405-10.229,16.6-8.475,26.483c-0.416,0.056-1.002-0.061-1.059,0.354
			c3.326-0.419,6.859-0.329,10.24-0.354c12.365-0.086,22.342,5.041,30.721,8.476c5.465,2.774,8.498,7.981,13.418,11.3
			c0.549,3.1,2.496,4.801,3.531,7.415c12.67-6.044,23.242-14.188,35.664-20.479c1.08-2.099,3.275-3.082,5.297-4.237
			c1.951-2.575,5.723-7.15,7.416-8.828c1.799-1.783,3.221-3.728,4.59-6.709c3.844-8.365,7.168-21.082,2.119-30.368
			c-1.65-10.475-8.428-15.818-16.596-19.773c0.018,0.606-0.273,0.904-0.707,1.059c-3.459-4.428-12.459-5.196-18.008-6.355
			c0.805-0.1,1.324,0.084,1.41,0.705c-3.426,1.166-4.535,4.646-7.77,6.004c-1.348,2.771-2.438,5.801-4.943,7.414
			c-0.811,5.938-7.674,7.606-9.531,9.534c-3.352,0.653-6.857,1.147-8.477,3.531c7.838,1.425,14.855,4.31,22.246,6.003
			c1.873,0.43,3.688,0.169,5.295,0.707c0.76,0.252,1.229,1.369,2.119,1.766c0.611,0.271,1.518-0.197,2.119,0
			c5.291,1.736,11.723,15.568,4.238,18.362c-2.469-2.541,0.512-8.461-2.473-12.006c-9.67-6.854-30.883-6.983-39.9-14.478
			c0.443,0.145,0.721,0.455,0.705,1.06c-9.076,3.873-20.504,7.641-29.309,8.827C328.776,107.813,329.745,108.376,331.511,108.139z"
			/>
		<path fill="#FFE300" d="M327.272,107.786c8.807-1.188,20.232-4.954,29.311-8.827c0.016-0.604-0.264-0.915-0.705-1.06
			c9.018,7.493,30.229,7.623,39.898,14.478c2.984,3.545,0.004,9.466,2.475,12.006c7.482-2.794,1.053-16.626-4.238-18.362
			c-0.602-0.197-1.508,0.271-2.119,0c-0.893-0.396-1.359-1.513-2.119-1.766c-1.609-0.538-3.422-0.277-5.295-0.707
			c-7.391-1.694-14.408-4.578-22.246-6.003c1.617-2.384,5.125-2.878,8.475-3.531c1.859-1.928,8.723-3.596,9.533-9.534
			c2.506-1.613,3.596-4.645,4.943-7.414c3.232-1.358,4.344-4.839,7.77-6.004c-0.086-0.621-0.607-0.805-1.412-0.705
			c5.549,1.159,14.549,1.928,18.008,6.355c0.434-0.154,0.725-0.452,0.707-1.059c8.168,3.955,14.945,9.299,16.596,19.773
			c5.049,9.286,1.727,22.002-2.119,30.368c-1.367,2.981-2.791,4.926-4.59,6.709c-1.691,1.677-5.465,6.252-7.416,8.828
			c-2.02,1.157-4.217,2.139-5.297,4.237c-12.422,6.291-22.994,14.436-35.664,20.479c-1.035-2.614-2.98-4.315-3.531-7.415
			c-4.92-3.318-7.951-8.523-13.418-11.3c-8.379-3.435-18.354-8.562-30.721-8.476c-3.381,0.024-6.914-0.065-10.24,0.354
			c0.059-0.414,0.645-0.299,1.061-0.354c-1.754-9.884,1.426-22.078,8.475-26.483c0.131-0.601-0.275-0.666-0.705-0.706
			c8.688,0.973,23.855,3.75,34.605,6.355c5.213,1.264,12.188,4.907,8.475,11.652c0.039,0.865,1.166,0.075,1.059-0.354
			c0.529,0.949-0.074,1.953,1.059,2.826c4.326-1.234,2.873-8.968,1.061-12.006c-4.572-7.667-20.697-6.125-27.895-10.24
			c-2.564-0.035-7.193-0.4-9.533-1.766C329.745,108.376,328.776,107.813,327.272,107.786z"/>
		<path fill="#372F23" d="M320.212,142.745c-2.793,0.672-6.896,0.113-10.24,1.412C312.853,142.458,316.897,142.704,320.212,142.745z
			"/>
		<path fill="#372F23" d="M297.259,149.1c3.234-1.945,6.303-4.056,10.947-4.59C304.028,145.512,300.849,147.512,297.259,149.1z"/>
		<path fill="#372F23" d="M293.021,151.218c0.914-1.086,2.486-1.517,3.885-2.119C295.886,150.081,294.345,150.542,293.021,151.218z"
			/>
		<path fill="#372F23" d="M246.41,181.94c-1.799-1.144-5.365-0.52-7.062-1.767c18.112-9.313,35.162-19.688,53.319-28.955
			c-17.63,9.677-34.817,19.796-52.966,28.955C241.746,180.956,245.166,180.36,246.41,181.94z"/>
		<path fill="#372F23" d="M250.295,183.706c3.939,0.416,4.816,3.894,7.769,5.297C254.85,187.86,253.839,184.517,250.295,183.706z"/>
		<path fill="#372F23" d="M258.063,189.356c4.519,4.545,9.249,10.76,10.241,17.655C266.451,199.565,262.281,194.436,258.063,189.356
			z"/>
		<path fill="#372F23" d="M269.011,210.542c1.043,1.312,0.67,4.039,1.062,6.003C269.003,215.258,269.613,212.293,269.011,210.542z"
			/>
		<path fill="#372F23" d="M270.07,235.612c-0.774,4.287-0.274,9.849-1.766,13.418C269.268,244.932,268.753,239.356,270.07,235.612z"
			/>
		<path fill="#372F23" d="M268.305,249.737c-0.434,2.156-0.229,4.951-1.061,6.709C267.533,254.145,267.365,251.387,268.305,249.737z
			"/>
		<path fill="#372F23" d="M266.539,259.977c0.02,1.551-0.144,2.918-0.707,3.885C265.914,262.416,266.006,260.974,266.539,259.977z"
			/>
		<path fill="#372F23" d="M265.125,268.452c-0.658,1.343,0.08,4.082-0.705,5.297C264.518,271.845,264.057,269.384,265.125,268.452z"
			/>
		<path fill="#372F23" d="M264.42,274.102c-0.252,1.279-0.133,2.928-0.707,3.885C263.662,276.405,263.752,274.964,264.42,274.102z"
			/>
		<path fill="#372F23" d="M263.359,281.518c0.041,2.393-0.883,3.824-2.117,4.943C262.164,285.027,262.804,283.314,263.359,281.518z"
			/>
		<path fill="#372F23" d="M261.242,286.816c-0.103,1.662-0.59,2.941-1.06,4.236C260.133,289.238,260.705,288.045,261.242,286.816z"
			/>
		<path fill="#372F23" d="M259.828,293.525c-0.188,1.342-0.529,2.529-1.059,3.529C258.783,295.539,259.229,294.457,259.828,293.525z
			"/>
		<path fill="#372F23" d="M258.063,300.232c9.017-4.047,15.997-10.133,24.012-15.184c-2.554,1.82-6.009,4.412-9.534,7.064
			c-3.649,2.744-7.703,4.303-10.594,6.002C260.65,298.879,258.191,302,258.063,300.232z"/>
		<path fill="#372F23" d="M282.429,285.049c3.432-2.926,7.494-5.221,11.301-7.769C290.263,280.174,286.306,282.57,282.429,285.049z"
			/>
		<path fill="#372F23" d="M294.081,277.28c2.354-2,4.861-3.848,7.77-5.297C299.337,273.825,296.743,275.587,294.081,277.28z"/>
		<path fill="#372F23" d="M302.204,271.983c1.691-1.955,4.254-3.043,6.354-4.59C306.819,269.304,304.233,270.366,302.204,271.983z"
			/>
		<path fill="#372F23" d="M312.442,265.274c-0.98,0.9-2.133,1.635-3.529,2.119C309.741,266.337,311.179,265.893,312.442,265.274z"/>
		<path fill="#372F23" d="M312.798,265.274c1.395-1.074,2.662-2.279,4.236-3.178C315.749,263.282,314.579,264.585,312.798,265.274z"
			/>
		<path fill="#372F23" d="M317.386,262.096c2.127-1.875,4.133-3.871,7.064-4.943C322.124,258.829,319.731,260.44,317.386,262.096z"
			/>
		<path fill="#372F23" d="M327.272,255.741c2.738-2.44,5.439-4.918,8.828-6.709C333.136,251.243,330.388,253.677,327.272,255.741z"
			/>
		<path fill="#372F23" d="M336.456,249.032c10.525-6.893,19.6-15.24,27.895-24.365C356.411,234.147,347.321,242.477,336.456,249.032
			z"/>
		<path fill="#372F23" d="M369.296,215.838c-1.418,3.056-2.814,6.131-4.945,8.475C366.081,221.569,367.479,218.497,369.296,215.838z
			"/>
		<path fill="#372F23" d="M371.06,211.954c-0.559,1.209-0.865,2.668-1.766,3.531C369.806,214.231,370.075,212.735,371.06,211.954z"
			/>
		<path fill="#372F23" d="M373.179,180.174c1.48,2.699,0.115,6.061,1.412,8.828C372.751,186.707,374.12,183.37,373.179,180.174z"/>
		<path fill="#372F23" d="M371.765,175.583c1,0.765,0.955,2.575,1.412,3.884C372.304,178.575,372.272,176.841,371.765,175.583z"/>
		<path fill="#372F23" d="M369.646,168.168c0.514,2.195,1.508,3.908,1.768,6.355C370.745,172.485,369.651,170.87,369.646,168.168z"
			/>
		<path fill="#372F23" d="M350.931,149.454c7.746,3.437,12.506,9.859,17.303,16.242
			C363.095,159.655,358.351,153.216,350.931,149.454z"/>
		<path fill="#372F23" d="M322.683,142.745c10.047-0.551,19.633,1.881,26.131,6.003
			C342.101,145.136,332.786,142.809,322.683,142.745z"/>
		<path fill="#372F23" d="M310.325,163.577c2.326-1.791,7.398-0.838,10.943-1.412C318.319,163.335,313.142,162.278,310.325,163.577z
			"/>
		<path fill="#372F23" d="M288.079,185.823c0.596-1.404,0.275-3.725,0.354-5.649c5.508-6.497,10.047-13.964,19.773-16.243
			c-9.021,2.868-14.109,9.667-19.42,16.243C288.563,182.073,289.356,184.985,288.079,185.823z"/>
		<path fill="#372F23" d="M287.019,189.356c0.727,1.072,0.061,3.193-0.354,4.236C286.692,191.936,287.024,190.041,287.019,189.356z"
			/>
		<path fill="#372F23" d="M286.665,196.065c0.693,3.072,2.314,5.219,3.18,8.121C288.634,201.629,286.868,199.626,286.665,196.065z"
			/>
		<path fill="#372F23" d="M289.845,204.54c1.006,0.76,0.473,3.059,1.059,4.236C289.821,208.091,290.341,205.808,289.845,204.54z"/>
		<path fill="#372F23" d="M290.901,209.129c1.436,1.51,2.645,3.244,3.531,5.296C293.144,212.774,291.95,211.026,290.901,209.129z"/>
		<path fill="#372F23" d="M294.433,214.78c5.963,5.455,11.646,11.19,21.541,12.711c-10.354-0.944-15.607-6.99-21.541-12.358
			C294.433,215.014,294.433,214.897,294.433,214.78z"/>
		<path fill="#372F23" d="M316.679,227.491c0.879-0.315,3.07-1.145,3.885-0.353C318.954,226.94,318.366,227.764,316.679,227.491z"/>
		<path fill="#372F23" d="M320.919,227.138c1.877-0.712,5.002-0.177,7.062-0.707C326.374,227.416,323.454,227.083,320.919,227.138z"
			/>
		<path fill="#372F23" d="M329.747,226.079c0.977-0.789,2.154-1.374,3.529-1.766C332.302,225.102,331.12,225.688,329.747,226.079z"
			/>
		<path fill="#372F23" d="M333.63,224.313c5.971-3.916,11.535-8.24,15.186-14.478C345.61,216.52,339.935,220.733,333.63,224.313z"/>
		<path fill="#372F23" d="M350.931,185.823c1.631,4.617,3.215,13.024,1.062,17.304C353.56,198.159,351.968,191.182,350.931,185.823z
			"/>
		<path fill="#372F23" d="M348.106,178.409c1.398,1.427,1.504,4.146,2.475,6.002C349.179,182.985,349.075,180.266,348.106,178.409z"
			/>
		<path fill="#372F23" d="M323.038,162.166c12.361,1.291,19.887,7.419,25.068,15.89
			C342.644,169.864,334.901,163.952,323.038,162.166z"/>
		<path fill="#372F23" d="M322.331,164.991c0.469,4.425-1.975,8.805-2.119,13.771c-8.322-0.069-13.361,5.529-15.186,13.065
			c-5.271-0.158-11.229-0.758-15.535-2.825c2.064-7.938,6.111-13.898,10.945-19.068c1.857-1.102,5.85-1.496,5.297-3.884
			C310.562,167.694,315.813,163.981,322.331,164.991z M290.196,189.002c4.832,1.562,9.021,1.982,14.479,2.472
			c1.977-7.028,6.381-13.313,14.832-12.712c1.158-4.139,1.908-8.684,2.471-13.418C302.962,164.577,293.163,174.894,290.196,189.002z
			"/>
		<path fill="#F5CD00" d="M321.976,165.343c-0.562,4.735-1.312,9.28-2.471,13.418c-8.451-0.603-12.855,5.683-14.832,12.712
			c-5.455-0.488-9.645-0.91-14.477-2.472C293.163,174.894,302.962,164.577,321.976,165.343z M310.325,180.174
			c3.326,0.837,4.941-4.004,8.826-1.766c1.164-3.545,2.068-10.502,1.768-12.359c-15.695-1.214-28.086,8.546-29.662,22.6
			c3.268,1.697,9.496,2.248,13.418,2.119C305.595,186.274,307.683,182.948,310.325,180.174z"/>
		<path fill="#372F23" d="M341.046,196.77c1.225-0.283,1.355,0.526,2.473,0.354c1.25,0.162,2.039,0.785,3.531,0.705
			c0,0.119,0,0.236,0,0.354C344.896,197.862,342.755,197.534,341.046,196.77z"/>
		<path fill="#372F23" d="M348.462,198.536c0.816-0.112,1.354,0.058,1.766,0.354c0-0.236,0-0.471,0-0.707
			c0.057-0.998-1.062-0.822-1.061-1.766c1.213-3.116,0.387-7.455-1.768-9.887c-2.227-11.428-9.752-17.556-20.832-20.127
			c-2.4,3.559-2.104,7.664-3.18,12.358c7.666,1.505,11.336,8.124,12.359,15.185c-1.072,0.98,1.48,1.323,1.766,2.119
			c-0.955,0.221-2.182-2.156-2.473-0.354c0.309-8.708-4.602-15.139-12.357-16.949c1.023-4.391,1.244-9.584,3.178-13.064
			c4.178,0.062,6.215,2.261,9.889,2.824c7.834,5.572,14.711,15.514,14.125,27.189c0.354,1.176,1.58,1.48,1.059,3.531
			c-1.113,0.173-1.246-0.637-2.471-0.354C348.462,198.772,348.462,198.653,348.462,198.536z"/>
		<path fill="#00BDE4" d="M347.05,198.182c0-0.117,0-0.234,0-0.354c1.162,0.016,1.758,0.597,3.178,0.354c0,0.236,0,0.471,0,0.707
			c-0.41-0.296-0.947-0.466-1.766-0.354C348.146,198.261,347.663,198.157,347.05,198.182z"/>
		<path fill="#00BDE4" d="M341.046,196.77c-0.285-0.304-0.967-0.21-1.061-0.707c1.072,0.459,2.83,0.229,3.531,1.061
			C342.401,197.296,342.269,196.487,341.046,196.77z"/>
		<path fill="#00BDE4" d="M337.513,196.065c-0.285-0.795-2.838-1.138-1.766-2.119c0.277,1.489,2.123,1.407,3.178,2.119
			C338.456,196.065,337.983,196.065,337.513,196.065z"/>
		<path fill="#372F23" d="M308.558,189.708c-1.375,5.809,1.094,9.044,2.119,13.418c5.053,5.812,17.861,4.458,20.834-2.825
			c-1.178-2.37,0.676-2.836,1.059-4.591c-0.545-7.151-3.572-12.124-9.887-13.418c-7.295-1.496-11.447,2.03-14.125,7.062
			c0.941-4.354,4.795-5.799,8.121-7.769c4.588,0.184,10.283,0.378,13.066,3.884c2.111,2.66,4.545,10.1,1.766,12.712
			c0.441,9.854-16.283,11.617-21.188,4.944C309.845,199.811,306.243,194.837,308.558,189.708z"/>
		<path fill="#372F23" d="M226.99,417.469c-11.338-4.67-21.453-10.564-31.78-16.244c0.307-7.936,3.827-18.322,5.649-26.131
			c1.034-4.434,0.76-8.828,3.53-12.006c1.881-16.268,8.043-32.973,9.888-50.143c0.127-1.191-0.168-2.412,0-3.531
			c0.793-5.27,2.935-10.002,4.237-15.889c0.646-2.922,0.33-6.439,1.06-9.539c1.201-5.097,3.263-8.792,1.766-12.71
			c2.888-4.461,2.754-10.728,3.178-16.949c0.361-5.295,2.096-11.276,2.471-17.303c1.248-20.041-6.854-32.533-20.127-38.136
			c3.955-2.795,8.889-5.668,13.772-8.476c4.847-2.785,9.937-5.844,14.478-7.769c3.022-1.28,7.84,3.039,12.358,2.119
			c6.164,3.371,10.539,8.529,14.831,13.771c9.604,18.41,4.259,43.955,1.412,63.914c-1.301,9.127-4.28,18.978-6.002,27.898
			c-1.121,5.805-3.674,12.963-4.943,19.42c-0.645,3.27-0.501,6.613-1.061,9.889c-1.248,7.322-3.844,14.314-4.59,21.539
			c-2.631,5.047-2.578,11.08-4.237,16.596c-1.14,3.787-2.978,7.131-3.884,10.947c-0.978,4.115-1.147,8.445-2.119,12.711
			c-0.844,3.707-2.194,7.088-2.825,10.947c-0.604,3.701-1.124,7.766-2.119,11.299C230.777,407.803,227.919,412.168,226.99,417.469z
			 M233.699,392.75c1.129-5.836,2.106-10.299,3.178-16.244c1.77-9.816,4.732-17.98,7.416-27.188
			c1.771-6.076,3.148-12.004,4.591-18.717c0.76-3.537,1.892-7.383,2.472-10.943c0.559-3.436,0.383-6.922,1.059-10.242
			c1.25-6.123,3.3-12.215,4.238-18.008c0.705-4.35,2.521-9.117,3.531-13.774c2.299-10.608,4.711-21.467,4.941-31.427
			c0.107-4.551,1.812-9.514,2.121-14.125c1.485-22.154-3.803-38.079-20.127-46.965c-4.588,0.803-8.992-3.291-12.006-1.766
			c-8.457,4.279-19.756,10.661-27.896,15.537c8.484,4.037,14.718,9.083,18.009,18.01c0.371,1.006,0.832,2.777,1.06,4.236
			c0.73,4.684,1.562,11.739,1.06,16.596c-0.615,5.946-2.113,11.541-2.472,16.243c-0.474,6.187-0.184,12.162-2.825,16.949
			c0.562,6.218-1.401,11.008-2.472,16.952c-1.279,7.096-3.232,14.15-4.237,19.068c-0.448,2.193-0.688,4.383-1.06,6.709
			c-1.074,6.734-2.308,13.988-3.531,19.066c-0.488,2.025-0.342,4.111-0.707,6.355c-1.311,8.07-5.252,15.916-5.297,24.365
			c-4.653,10.639-6.938,25.406-9.181,37.43c9.935,5.838,20.349,11.197,31.075,16.244
			C229.404,408.939,231.898,402.055,233.699,392.75z"/>
		<path fill="#F5CD00" d="M226.637,417.115c-10.727-5.047-21.141-10.406-31.075-16.244c2.242-12.023,4.527-26.791,9.181-37.43
			c0.045-8.449,3.986-16.295,5.297-24.365c0.365-2.244,0.219-4.33,0.707-6.355c1.225-5.078,2.457-12.332,3.531-19.066
			c0.37-2.326,0.61-4.516,1.06-6.709c1.005-4.918,2.958-11.975,4.237-19.068c1.07-5.943,3.031-10.734,2.472-16.952
			c2.642-4.787,2.352-10.765,2.825-16.949c0.358-4.702,1.855-10.297,2.472-16.243c0.502-4.856-0.329-11.912-1.06-16.596
			c-0.228-1.459-0.688-3.23-1.06-4.236c-3.292-8.927-9.524-13.973-18.009-18.01c8.141-4.876,19.439-11.258,27.896-15.537
			c3.014-1.525,7.418,2.568,12.006,1.766c16.324,8.886,21.613,24.811,20.127,46.965c-0.31,4.611-2.012,9.574-2.121,14.125
			c-0.229,9.96-2.643,20.818-4.941,31.427c-1.01,4.657-2.826,9.424-3.531,13.774c-0.938,5.793-2.988,11.885-4.238,18.008
			c-0.676,3.32-0.5,6.809-1.059,10.242c-0.58,3.562-1.712,7.406-2.472,10.945c-1.44,6.711-2.82,12.639-4.591,18.715
			c-2.682,9.207-5.646,17.371-7.416,27.188c-1.071,5.945-2.049,10.408-3.178,16.244
			C231.898,402.055,229.404,408.939,226.637,417.115z M229.462,405.107c0.942-0.018,0.502-0.256,1.411-1.412
			c1.084-9.408,5.231-19.277,5.298-28.248c1.307,0.248,0.608-1.51,1.411-1.766c0.166-5.738,2.563-11.199,3.886-15.184
			c0.661-1.994,0.567-3.738,1.06-6.002c0.745-3.445,2.659-6.666,3.53-10.242c2.312-9.488,4.005-20.209,5.649-29.309
			c1.381-7.631,3.117-14.648,4.592-21.895c1.193-5.871,3.751-11.48,4.59-17.303c1.396-9.689,3.163-18.28,3.885-27.896
			c0.65-8.683,2.913-17.315,2.471-25.776c-0.861-16.553-8.375-27.478-19.773-34.252c-4.938,0.119-9.896-3.525-13.064-1.766
			c-7.93,4.402-18.582,10.022-26.131,14.831c14.043,5.608,20.041,19.897,19.775,36.371c-0.068,4.205-0.754,9.172-1.413,13.418
			c-1.194,7.702-1.476,15.997-4.237,22.599c0.256,7.582-1.809,13.931-3.178,20.837c-0.586,2.953-0.725,5.871-1.413,8.826
			c-0.604,2.594-2.004,5.203-2.472,7.77c-1.198,6.562-1.081,12.924-2.473,19.42c-2.324,10.854-6.279,22.943-7.769,35.312
			c-4.224,10.963-7.121,25.127-8.828,37.43c10.03,5.154,18.981,11.387,30.368,15.184C226.551,411.834,229.539,407.9,229.462,405.107
			z"/>
		<path fill="#372F23" d="M291.964,203.479c1.273,2.033,1.578,3.903,2.824,5.297c0.895,1.225,1.398,2.836,2.822,3.531
			c1.312,1.868,1.615,4.742,4.238,5.297c1.023,1.094,2.248,1.99,3.531,2.825c0.875,0.538,2.1,0.726,2.471,1.767
			c-3.104-1.485-5.248-3.934-8.475-5.297C297.733,211.596,293.14,209.245,291.964,203.479z"/>
		<path fill="#372F23" d="M308.206,222.196c2.65-3.426,2.232-9,4.592-13.418c-4.672-2.981-7.342-7.961-9.182-13.771
			c-0.539-1.109-2.707-0.588-4.238-0.707c-2.707-0.471-5.424-0.932-8.828-0.706c-1.689,2.979,0.922,6.711,1.414,9.534
			c-1.318-2.51-3.951-7.531-1.414-10.594c3.918,0.423,8.672,1.217,13.42,1.766c1.838,3.105,1.68,8.206,5.648,9.182
			c0.045,0.633-0.434,0.744-0.354,1.412c0.799,1.555,2.553,2.154,4.236,2.825C311.517,210.901,310.759,221.713,308.206,222.196z"/>
		<path fill="#F5CD00" d="M299.378,194.298c1.531,0.119,3.699-0.403,4.238,0.707C302.704,194.268,300.192,195.13,299.378,194.298z"
			/>
		<path fill="#00BDE4" d="M305.382,220.429c-1.283-0.835-2.508-1.731-3.531-2.825C303.216,218.356,304.421,219.272,305.382,220.429z
			"/>
		<path fill="#00BDE4" d="M297.61,212.307c-1.424-0.693-1.93-2.307-2.822-3.531C296.091,209.591,296.464,211.338,297.61,212.307z"/>
		<path fill="#372F23" d="M335.394,198.889c5.529,0.002,9.428,1.637,13.771,2.825c-3.664,14.587-16.297,24.728-36.369,22.952
			c-0.777-5.387,1.555-10.672,3.178-14.831C326.577,211.661,332.464,205.893,335.394,198.889z M335.749,199.243
			c-2.893,6.949-9.67,13.135-19.42,10.945c-1.855,3.916-3.166,8.371-3.531,13.771c18.979,2.156,32.018-7.133,36.018-22.246
			C344.179,201.17,340.731,199.436,335.749,199.243z"/>
		<path fill="#F5CD00" d="M348.813,201.714c-4,15.114-17.039,24.403-36.018,22.246c0.365-5.401,1.678-9.856,3.531-13.771
			c9.75,2.188,16.529-3.998,19.42-10.947C340.731,199.436,344.179,201.17,348.813,201.714z M326.216,223.608
			c9.766-1.941,19.961-11.947,22.246-21.541c-5.174-0.259-8.016-2.166-12.359-2.472c-3.375,7.304-9.51,12.823-19.773,11.3
			c-0.998,3.721-4.043,9.807-2.119,13.065C318.097,222.321,320.927,224.659,326.216,223.608z"/>
		<path fill="#372F23" d="M85.038,289.641c4.246-25.418,19.089-40.236,39.549-49.439c1.225,0.049,0.565-1.788,1.766-1.766
			c12.454-6.023,25.468-11.492,36.724-18.715c3.525-0.277,7.152-3.193,11.652-5.297c3.225-1.506,6.729-2.872,9.534-4.59
			c1.354-0.829,2.511-2.372,4.238-3.178c1.843-0.86,4.228-1.131,6.354-2.118c2.247-1.043,5.027-3.382,7.063-3.531
			c3.141-0.231,7.776,2.073,10.593,3.884c3.855,2.479,6.634,6.758,8.475,10.594c-2.619-5.405-11.635-14.703-19.067-14.125
			c-2.052,0.16-4.315,2.44-6.709,3.53c-2.771,1.261-5.831,1.726-7.769,2.825c-1.065,0.604-1.803,1.827-2.826,2.473
			c-2.539,1.598-6.127,2.985-9.535,4.59c-3.11,1.465-6.334,3.903-9.18,4.943c-0.684,0.25-1.812,0.044-2.473,0.354
			c-2.407,1.125-4.721,2.998-7.062,4.238c-9.537,5.051-19.908,9.807-30.015,14.478c-1.332,3.024-5.698,3.133-8.476,4.591
			c-2.316,1.216-5.516,3.871-8.121,5.65c-1.273,0.869-2.231,2.035-3.531,3.178c-7.913,6.958-15.396,15.564-18.715,27.542
			C86.719,282.607,86.798,286.809,85.038,289.641z"/>
		<path fill="#372F23" d="M84.685,294.23c-0.575,5.049,0.357,7.955,0.353,13.064C84.472,303.029,83.451,298.447,84.685,294.23z"/>
		<path fill="#372F23" d="M85.038,307.648c2.715,10.418,6.494,19.879,12.712,26.838c0.751,0.842,2.086,1.285,2.824,2.117
			c1.188,1.344,1.583,3.34,2.825,4.592c5.451,5.494,12.966,10.471,19.774,15.891c4.86,3.869,10.284,7.117,15.89,10.594
			c1.764,1.094,3.34,2.992,4.944,3.885c1.146,0.635,2.747,0.418,3.884,1.061c1.542,0.871,2.875,2.549,4.592,3.531
			c2.844,1.627,5.846,2.402,7.768,4.941c5.457,2.883,10.066,6.148,15.891,9.18c1.83,0.951,2.999,2.65,4.592,3.531
			c1.114,0.619,2.444,0.414,3.53,1.062c2.369,1.406,4.065,4.008,7.416,3.529c0.414-0.527,0.438-1.443,1.06-1.768
			c-2.91,6.021-8.09-2.869-12.006-2.471c-4.117-3.232-10.773-7.213-16.242-10.24c-1.494-0.826-3.713-1.494-4.944-2.473
			c-0.753-0.596-0.993-1.926-1.765-2.471c-1.903-1.34-4.939-1.777-7.063-3.178c-2.052-1.354-3.431-3.578-6.709-4.238
			C120.023,354.586,92.281,341.367,85.038,307.648z"/>
		<path fill="#372F23" d="M194.855,388.865c-0.379,2.328-0.947,4.467-1.765,6.355C193.421,392.844,194.035,390.752,194.855,388.865z
			"/>
		<path fill="#372F23" d="M196.269,383.568c0.185,2.303-0.536,3.701-1.413,4.943C195.43,386.967,195.826,385.244,196.269,383.568z"
			/>
		<path fill="#372F23" d="M197.681,376.154c0.074,2.896-0.935,4.715-1.412,7.062C196.482,380.033,197.117,378.281,197.681,376.154z"
			/>
		<path fill="#372F23" d="M199.447,368.738c-0.459,1.895-0.621,4.088-1.412,5.648C198.162,372.16,198.621,370.268,199.447,368.738z"
			/>
		<path fill="#372F23" d="M202.978,355.672c-0.226,3.373-1.733,6.719-0.706,10.24c-1.727,0.039-2.416,1.115-2.824,2.473
			c-0.343-2.105,1.069-2.461,2.472-2.824C201.064,362.33,202.057,358.268,202.978,355.672z"/>
		<path fill="#372F23" d="M204.742,346.846c-0.227,3.186-1.051,5.775-1.766,8.475C203.205,352.133,204.029,349.543,204.742,346.846z
			"/>
		<path fill="#372F23" d="M208.275,330.602c-1.385,5.09-1.269,11.68-3.531,15.891C206.51,341.785,206.347,335.146,208.275,330.602z"
			/>
		<path fill="#372F23" d="M209.334,324.6c0.023,2.26-0.329,4.143-1.061,5.648C208.574,328.311,208.687,326.188,209.334,324.6z"/>
		<path fill="#372F23" d="M211.1,314.713c-0.648,2.412-0.355,5.764-1.413,7.77C210.215,319.949,209.949,316.623,211.1,314.713z"/>
		<path fill="#372F23" d="M213.219,303.764c-0.471,3.297-1.104,6.432-1.766,9.535C211.585,309.664,212.281,306.594,213.219,303.764z
			"/>
		<path fill="#372F23" d="M214.631,296.703c-0.411,2.295-0.678,4.736-1.412,6.709C213.421,300.906,213.765,298.543,214.631,296.703z
			"/>
		<path fill="#372F23" d="M217.809,282.93c-0.71,4.822-2.064,9.002-3.178,13.42C215.271,291.457,216.586,287.24,217.809,282.93z"/>
		<path fill="#372F23" d="M219.574,271.278c0.104,3.518-0.553,6.272-1.766,8.474C218.604,277.133,219.051,274.167,219.574,271.278z"
			/>
		<path fill="#372F23" d="M221.34,262.096c-0.229,1.895-0.575,6.719-1.766,8.828C220.348,268.167,220.343,264.63,221.34,262.096z"/>
		<path fill="#372F23" d="M222.753,246.207c-1.251,5.543-0.452,9.489-1.413,14.478C221.551,255.245,221.109,251.256,222.753,246.207
			z"/>
		<path fill="#372F23" d="M222.753,220.077c2.271,5.572,1.729,16.48,0.353,22.599C223.867,235.789,224.49,226.403,222.753,220.077z"
			/>
		<path fill="#372F23" d="M220.986,215.838c0.918,0.965,1.889,1.876,1.767,3.884C222.269,218.323,221.546,217.163,220.986,215.838z"
			/>
		<path fill="#372F23" d="M331.862,263.508c26.953,4.068,53.018,6.061,77.688,12.359c3.99,4.478,9.383,9.601,8.828,16.951
			c-0.605,8.012-10.42,15.238-19.068,13.771c-1.814-0.307-3.084-2.049-5.297-1.059C372.784,292.037,351.819,278.276,331.862,263.508
			z M333.63,264.921c20.379,13.284,39.723,27.606,60.734,40.256c2.195-1.143,3.389,0.787,5.299,1.059
			c10.025,1.432,19.771-8.24,18.008-17.303c-0.723-3.701-4.1-8.389-7.414-10.242c0.207-1.267-0.412-1.707-0.707-2.472
			c-8.889-3.122-20.609-3.931-31.428-5.649c-2.25-0.357-4.217-1.177-6.355-1.412c-5.613-0.621-13.404-0.399-18.008-1.767
			c-6.424-1.907-12.029-2.561-19.775-3.178c-0.078-0.274-0.295-0.41-0.705-0.353C333.261,264.347,333.442,264.637,333.63,264.921z"
			/>
		<path fill="#F5CD00" d="M333.276,263.862c0.41-0.057,0.627,0.078,0.705,0.354c7.746,0.617,13.354,1.271,19.775,3.178
			c4.604,1.367,12.395,1.146,18.008,1.766c2.141,0.236,4.105,1.056,6.355,1.412c10.818,1.72,22.539,2.528,31.428,5.65
			c0.295,0.764,0.914,1.205,0.707,2.473c3.316,1.853,6.693,6.541,7.414,10.24c1.766,9.064-7.98,18.734-18.008,17.305
			c-1.91-0.271-3.102-2.201-5.297-1.061c-21.014-12.648-40.357-26.972-60.736-40.255
			C333.442,264.637,333.261,264.347,333.276,263.862z M395.069,304.824c0.094-0.734,1.555-0.096,1.768-0.705
			c6.742,5.266,19.576-2.691,20.129-10.24c0.41-5.613-2.814-9.566-5.297-13.773c-1.982,0.332-2.033-1.262-2.475-2.472
			c-1.076,0.255-1.285-0.361-2.115-0.354c0.02-0.451,0.449-0.488,0.352-1.06c-10.525-3.138-24.312-4.641-34.252-5.649
			c1.236-0.059,2.262,0.094,2.826,0.707c-3.342,4.875-5.486,11.533-5.65,17.656C378.196,294.627,386.065,300.293,395.069,304.824z"
			/>
		<path fill="#372F23" d="M325.86,264.921c12.965,10.598,23.035,24.155,33.898,36.725c2.627,3.039,5.752,5.195,8.475,8.121
			c4.518,4.854,8.279,10.814,12.715,15.891c0.875,4.543,2.764,8.932,2.117,14.125c-0.723,5.805-6.922,11.328-12.713,11.299
			c-3.416-0.018-5.811-2.342-9.535-2.824c-1.449-1.846-2.291-4.299-4.59-5.297C346.522,316.529,335.138,291.781,325.86,264.921z
			 M326.567,266.333c9.607,25.823,20.271,50.586,30.016,76.274c2.297,0.998,3.139,3.453,4.59,5.297
			c3.754,0.789,7.033,3.062,10.947,2.473c3.646-0.551,5.543-3.932,8.475-4.943c3.672-6.863,1.465-12.395,0-19.773
			c-2.32-0.885-2.625-3.541-3.885-5.297c-2.379-3.32-5.602-6.393-8.477-9.535c-5.674-6.205-11.363-12.062-16.596-18.361
			c-7.686-9.26-15.941-17.502-24.012-26.131c-0.078-0.275-0.297-0.41-0.707-0.353C326.899,265.61,326.468,265.702,326.567,266.333z"
			/>
		<path fill="#F5CD00" d="M326.921,265.981c0.41-0.058,0.629,0.077,0.707,0.353c8.068,8.629,16.326,16.872,24.012,26.131
			c5.23,6.301,10.922,12.156,16.596,18.361c2.875,3.145,6.096,6.215,8.475,9.535c1.26,1.756,1.564,4.412,3.885,5.297
			c1.465,7.381,3.672,12.91,0,19.773c-2.932,1.014-4.826,4.395-8.475,4.943c-3.914,0.59-7.193-1.684-10.947-2.473
			c-1.451-1.844-2.293-4.299-4.59-5.297c-9.742-25.688-20.406-50.451-30.014-76.274C326.468,265.702,326.899,265.61,326.921,265.981
			z M377.417,323.539c-4.822-8.125-12.23-15.551-18.715-20.834c0.508,0.199,0.859,0.551,1.059,1.059
			c-2.699-0.166-3.918,2.428-6.002,1.77c-0.242,0.701-1.076,0.807-1.412,1.412c-3.199,0.717-5.059,4.553-7.416,4.941
			c3.928,10.434,8.596,20.123,12.359,30.723c0.461,0.715,1.869,0.482,2.119,1.41c0.418,1.109,1.189,1.869,1.408,3.18
			c4.527,2.18,10.023,3.273,14.832,1.061c0.697-2.834,3.318-3.742,5.65-4.943c1.777-6.16-0.154-11.768-2.473-16.949
			c-0.105-0.695,0.477-0.701,0.707-1.061C378.843,324.703,377.769,324.48,377.417,323.539z"/>
		<path fill="#FFE300" d="M379.536,325.305c-0.23,0.359-0.814,0.365-0.707,1.061c2.316,5.182,4.25,10.789,2.473,16.949
			c-2.332,1.201-4.953,2.109-5.65,4.943c-4.809,2.215-10.305,1.119-14.832-1.061c-0.219-1.311-0.992-2.068-1.41-3.18
			c-0.25-0.928-1.658-0.695-2.119-1.41c-3.764-10.6-8.432-20.289-12.359-30.723c2.357-0.391,4.217-4.227,7.416-4.941
			c0.336-0.605,1.17-0.711,1.412-1.412c2.084,0.658,3.303-1.936,6.002-1.77c-0.197-0.508-0.551-0.857-1.059-1.059
			c6.486,5.283,13.893,12.709,18.715,20.834C377.769,324.48,378.843,324.703,379.536,325.305z"/>
		<path fill="#372F23" d="M251.707,332.367c-0.282,1.719-0.618,3.383-1.412,4.59C250.65,335.312,250.943,333.604,251.707,332.367z"
			/>
		<path fill="#372F23" d="M249.941,338.723c-0.507,3.73-2.046,6.43-2.472,10.242c8.546-0.797,16.683-3.193,24.013-1.414
			c3.506,6.615-2.617,14.115-4.592,19.773c1.352-6.277,7.365-12.412,4.592-19.42c-7.729-1.604-16.007,0.693-24.365,1.412
			C247.617,345.344,248.772,342.027,249.941,338.723z"/>
		<path fill="#372F23" d="M266.891,367.68c-0.348,3.77-2.211,6.025-3.178,9.18c5.723,0.205,13.969,1.965,19.774,2.119
			c0.67-0.625,0.838-1.752,1.412-2.473c-0.125,5.059-7.739,2.062-12.358,1.412c-3.895-0.549-7.1-0.061-9.533-0.705
			C264.359,374.092,265.842,371.102,266.891,367.68z"/>
		<path fill="#372F23" d="M294.433,346.139c-0.504,10.475-6.195,20.215-9.533,30.016
			C287.808,365.879,292.878,357.764,294.433,346.139z"/>
		<path fill="#372F23" d="M251.707,332.014c0.371-1.16,0.17-2.891,0.707-3.885c4.383-0.482,8.738-0.578,13.771-1.059
			c4.78-0.455,10.153-1.855,14.125-1.412c2.921,0.326,5.118,2.705,8.12,2.119c4.414,3.232,7.15,10.031,6.002,17.654
			c-0.295-7.889-1.006-15.047-6.354-17.305c-0.9-0.379-2.693,0.104-4.236-0.352c-1.584-0.467-2.199-1.602-3.531-1.766
			c-2.723-0.338-6.729,0.4-9.889,0.705c-6.187,0.6-12.679,1.662-17.655,1.766C252.103,329.35,252.675,331.451,251.707,332.014z"/>
		<path fill="#372F23" d="M250.295,384.98c-1.909-7.771,3.08-12.932,10.947-13.064c0.658,1.605-0.895,3.725-1.767,4.943
			c0.326-1.547,1.968-3.299,1.412-4.59C253.755,372.904,249.345,376.262,250.295,384.98z"/>
		<path fill="#372F23" d="M250.295,385.334c1.824,5.238,5.751,8.375,12.359,8.828C255.522,394.23,251.83,390.861,250.295,385.334z"
			/>
		<path fill="#372F23" d="M263.008,394.162c5.704,0.77,11.156,1.791,16.596,2.824C273.63,396.488,268.238,395.404,263.008,394.162z"
			/>
		<path fill="#372F23" d="M279.957,396.986c1.076-0.357,4.005,0.459,5.649,0.707C283.202,397.979,281.74,397.32,279.957,396.986z"/>
		<path fill="#372F23" d="M286.312,397.693c4.363,0.111,11.709,0.295,16.598,1.059C297.259,398.518,291.429,398.461,286.312,397.693
			z"/>
		<path fill="#372F23" d="M308.558,399.105c1.461-0.049,2.73,0.098,3.531,0.707C310.856,399.633,309.425,399.652,308.558,399.105z"
			/>
		<path fill="#372F23" d="M312.442,399.812c4.691-1.43,9.973-2.271,10.596-7.77C322.761,397.887,317.653,398.902,312.442,399.812z"
			/>
		<path fill="#372F23" d="M301.142,377.918c7.072,0.934,17.912,1.156,20.834,7.416C318.435,379.459,308.856,379.621,301.142,377.918
			z"/>
		<path fill="#372F23" d="M295.845,377.213c1.703,0.18,2.742,1.027,4.943,0.705C299.345,378.877,296.837,377.881,295.845,377.213z"
			/>
		<path fill="#372F23" d="M279.604,381.803c1.883,0,3.765,0,5.649,0c1.422-1.637,1.908-4.213,2.824-6.355
			c2.574-0.223,3.861,0.848,5.65,1.412c-2.287,0.166-2.797-1.441-5.297-1.059c-1.254,1.924-1.355,5.002-3.178,6.355
			C283.481,381.926,280.789,382.619,279.604,381.803z"/>
		<path fill="#372F23" d="M261.242,379.332c2.699-0.111,4.496,0.682,6.355,1.412C265.342,380.41,263.373,379.791,261.242,379.332z"
			/>
		<path fill="#372F23" d="M231.933,411.818c-0.478,2.701-1.401,4.953-1.765,7.768c5.33,4.568,15.332,6.086,21.187,10.24
			c0.375,0.268,0.043,1.152,0.706,1.766c1.184,1.096,3.733,0.85,3.885,3.531c0.146,2.586-4.177,6.055-6.004,7.416
			c-4.158,3.096-9.223,5.408-12.006,9.182c-1.801,0.668-3.457,1.486-4.238,3.178c5.196,3.043,9.225,7.254,13.772,10.945
			c-5.124-3.469-9.306-7.879-14.478-11.301c7.111-5.834,14.987-10.906,21.894-16.947c1.466-3.014,0.009-5.422-3.179-5.648
			c0.291-0.998-0.498-0.916-0.354-1.768c-7.269-3.439-15.195-6.227-21.541-10.594C230.341,416.818,230.744,413.924,231.933,411.818z
			"/>
		<path fill="#372F23" d="M247.824,465.844c3.367,2.266,7.278-4.348,11.299-6.709c8.83-5.186,18.64-13.756,21.894-24.719
			c0.646,0.441-0.655,1.912-0.354,3.18c-4.211,9.102-13.021,16.326-22.244,22.598c-2.949,2.006-7.7,8.084-10.594,6.004
			C247.824,466.08,247.824,465.961,247.824,465.844z"/>
		<path fill="#372F23" d="M276.427,422.41c1.537,1.994,4.573,2.488,4.59,6.004C280.574,425.324,277.439,424.928,276.427,422.41z"/>
		<path fill="#372F23" d="M233.346,407.227c0.195-2.629,1.139-4.512,1.766-6.709c3.102,1.02,5.904,2.336,8.123,4.238
			c6.389,1.924,12.471,5.381,18.361,8.475c5.214,2.736,11.282,4.447,14.831,8.828c-12.261-8.457-27.319-14.113-40.962-21.188
			C234.406,402.639,234.295,405.352,233.346,407.227z"/>
		<path fill="#372F23" d="M217.455,455.25c1.438-7.475,10.18-11.078,16.597-6.002c-0.528,1.59-2.207,2.031-3.531,2.824
			c0.743-1.258,2.769-1.234,3.179-2.824C226.816,444.557,219.628,448.66,217.455,455.25z"/>
		<path fill="#372F23" d="M218.515,463.725c2.883,3.473,7.024,5.688,9.888,9.182C225.197,469.756,220.947,467.65,218.515,463.725z"
			/>
		<path fill="#372F23" d="M228.402,473.26c7.459,5.723,14.531,11.834,22.246,17.303C242.595,485.434,235.467,479.377,228.402,473.26
			z"/>
		<path fill="#372F23" d="M251.002,490.562c5.01,3.229,9.039,7.439,14.477,10.24C259.697,498.344,255.604,494.199,251.002,490.562z"
			/>
		<path fill="#372F23" d="M265.832,500.803c4.35,1.533,8.402,0.361,10.594-2.826C274.986,501.715,269.457,502.961,265.832,500.803z"
			/>
		<path fill="#372F23" d="M230.168,452.072c-0.195,0.629-0.182,1.467-0.707,1.766c5.408,6.6,12.406,11.605,19.773,16.242
			c2.6-0.578,3.43-2.926,6.004-3.529c2.851,2.211,5.238,4.883,7.414,7.768c3.846,2.234,14.084,9.16,15.893,14.832
			c0.535,1.684,0.404,4.223-0.707,6.002c1.414-4.418,0.238-6.188-2.119-9.18c-2.182-2.77-4.926-5.912-7.768-8.475
			c-1.541-1.391-3.866-1.693-5.299-2.826c-3.216-2.545-4.244-6.24-7.414-7.768c-2.6,0.578-3.318,3.037-6.004,3.531
			c-7.546-4.695-14.652-9.832-20.127-16.598C229.824,453.613,229.341,452.188,230.168,452.072z"/>
		<path fill="#FFE300" d="M226.637,416.055c-11.387-3.797-20.338-10.029-30.368-15.184c1.707-12.305,4.604-26.467,8.828-37.43
			c1.489-12.369,5.444-24.459,7.769-35.314c1.392-6.496,1.274-12.855,2.473-19.42c0.468-2.564,1.867-5.176,2.472-7.77
			c0.688-2.955,0.826-5.873,1.413-8.826c1.369-6.906,3.434-13.255,3.178-20.835c2.764-6.603,3.043-14.897,4.237-22.6
			c0.658-4.246,1.344-9.214,1.413-13.418c0.266-16.472-5.732-30.763-19.775-36.371c7.549-4.808,18.201-10.428,26.131-14.831
			c3.168-1.76,8.127,1.886,13.064,1.765c11.398,6.776,18.913,17.701,19.773,34.252c0.441,8.461-1.82,17.095-2.471,25.777
			c-0.723,9.616-2.488,18.207-3.885,27.896c-0.839,5.822-3.396,11.433-4.59,17.304c-1.475,7.244-3.211,14.262-4.592,21.893
			c-1.645,9.1-3.338,19.82-5.649,29.309c-0.871,3.576-2.785,6.797-3.53,10.242c-0.492,2.264-0.398,4.008-1.06,6.002
			c-1.321,3.984-3.72,9.445-3.886,15.184c-0.803,0.258-0.104,2.016-1.411,1.768c-0.066,8.971-4.214,18.84-5.298,28.248
			c-0.909,1.154-0.469,1.395-1.411,1.41C229.539,407.9,226.551,411.834,226.637,416.055z"/>
		<path d="M373.53,170.993c0.232,1.535,0.572,2.959,1.768,3.531c-1.068,2.086,0.961,3.98,1.412,6.356
			c0.736,3.894,1.459,10.119,1.412,13.418c-0.059,4.067-1.77,8.241-2.473,12.006c-0.275,1.479,0.014,2.951-0.354,4.237
			c-0.641,2.252-2.969,3.837-2.119,6.355c-3.422,6.818-8.371,12.109-13.064,17.656c-1.113-0.173-1.248,0.637-2.473,0.354
			c0.062,1.744-2.309,1.602-1.412,3.178c-7.078,6.223-14.973,11.627-23.305,16.596c-1.535,2.232-4.434,3.1-6.355,4.943
			c0.623,1.148,3.623,1.318,3.885,0.705c9.9,2.77,21.275,2.835,31.779,6.004c2.977-2.315,6.766,0.281,9.889,0.707
			c6.574,0.894,13.016,0.546,20.127,1.766c1.209,0.207,2.258,1.141,3.529,1.412c3.766,0.803,7.383,0.477,10.596,1.766
			c5.727,2.299,8.996,6.947,12.357,11.3c2.896,7.213,1.248,13.768-1.766,19.422c-4,2.945-7.967,5.924-13.418,7.416
			c-21.195-3.406-31.203-17.998-48.025-25.779c0.33-1.623-1.355-1.23-1.412-2.473c-8.301-2.88-13.449-8.912-20.479-13.065
			c2.453,3.444,5.777,6.371,8.828,9.534c1.178,1.222,2.225,2.57,3.529,3.884c0.178,0.178,0.885-0.176,1.062,0
			c0.174,0.176-0.178,0.887,0,1.061c1.508,1.465,3.715,2.363,5.297,3.885c1.424,1.371,2.248,3.547,3.531,5.297
			c2.209,3.018,5.475,5.404,7.768,8.123c0.473,0.559,0.258,1.506,0.705,2.117c1.246,1.699,3.115,3.244,4.592,4.941
			c1.449,1.672,3.059,3.49,4.943,4.594c-0.453,1.555,1.689,1.443,0.705,2.473c3.766,1.883,5.074,6.225,8.123,8.826
			c-0.121,2.828,1.592,3.822,2.471,5.648c1.416,8.822-0.105,14.682-3.883,20.48c-3.225,0.549-6.699,2.934-9.535,4.943
			c-2.586-0.977-3.891-1.486-7.062-1.412c-1.141,0.316-0.496-1.152-1.061-1.412c-3.012,0.305-3.463-1.953-5.648-2.473
			c-6.23-6.955-8.877-21.141-13.771-29.309c0.189-1.365-0.631-1.723-0.354-3.178c-5.953-11.145-8.18-22.793-14.123-33.9
			c0-0.707,0-1.412,0-2.119c-2.648-5.068-5.848-11.763-7.416-18.009c-5.072,3.284-10.85,5.866-15.186,9.887
			c-17.398,10.259-32.751,22.57-50.493,32.488c-1.33,7.029-2.36,14.355-3.886,21.189c1.316,0.375,0.56-1.324,1.767-1.062
			c11.225,1.111,19.312-2.818,26.482-2.117c22.29,2.184,17.497,25.367,11.3,40.605c-1.129,2.775-1.457,5.266-2.473,8.123
			c7.693,3.107,14.508,2.299,22.953,5.65c6.182-0.986,10.092,3.312,12.711,7.062c0.951,5.65,1.484,10.848-2.119,14.123
			c-8.482,7.715-32.77,0.967-42.372,2.119c-6.336-2.848-14.535-1.869-21.54-4.238c-13.053-0.053-16.868-20.908-6.354-26.129
			c2.738-1.361,7.438-2.123,10.238-0.707c2.541-7.131,4.448-11.439,6.358-19.42c-1.104-0.312-4.2,1.148-5.651-0.354
			c-1.548-0.373-1.16,1.193-2.471,1.059c-1.25,0.189-1.82-0.301-2.119-1.059c-3.229,1.764-8.906,0.867-13.064,1.412
			c-3.428,15.531-8.113,31.658-10.594,46.965c13.354,3.242,21.438,11.754,34.254,15.537c7.035,4.934,15.495,7.611,14.476,20.127
			c-0.061,0.754-0.564,3.271-1.059,4.59c-0.225,0.596-1.193,0.875-1.412,1.412c-0.227,0.551,0.631,0.838,0.352,1.412
			c-1.896,3.906-5.839,7.189-9.532,10.594c-5.166,4.762-9.959,7.654-14.478,12.359c5.125,5.115,10.194,10.287,15.89,14.83
			c-0.66,0.629,0.287,0.896,0,2.119c10.567,2.064,9.46,21.209-1.412,23.307c-5.123,0.986-8.748-2.033-13.418-3.18
			c-3.777-3.939-9.822-6.295-14.832-10.596c-0.785-0.672-0.955-1.844-1.766-2.471c-2.029-1.564-4.982-2.438-7.062-4.238
			c-2.5-2.164-4.59-4.898-7.062-7.062c-2.662-2.326-5.946-3.939-8.122-6.002c-0.453-0.428-0.413-1.463-1.061-2.119
			c-1.682-1.705-4.135-3.285-4.943-6.355c-1.102-4.188,0.008-7.928,1.061-12.006c1.773-1.17,2.582-3.303,3.883-4.941
			c4.975-3.238,14.752-2.529,17.303,2.473c5.552-3.748,10.445-8.154,15.537-12.361c-2.309-1.457-3.08-4.451-7.062-4.236
			c-0.49-0.688-1.27-1.084-1.412-2.119c-5.888-1.998-10.824-4.947-15.537-8.121c-14.295-6.068-26.319-14.406-40.608-20.48
			c-1.774-2.695-6.146-2.799-7.769-5.648c-2.688,0.1-3.153-2.025-5.65-2.119c-10.156-8.793-23.876-14.023-34.605-22.246
			c-0.998-0.291-0.914,0.498-1.766,0.354c-13.891-9.062-26.513-19.391-38.843-30.014c-0.438-2.822-2.433-3.254-3.53-6.004
			c-0.628-0.312-0.898-0.984-2.119-0.705c-1.637-3.301-3.237-5.695-4.944-9.182c-1.717-3.504-4.795-7.645-5.65-11.299
			c-0.574-2.453-0.104-5.32-0.707-8.123c-0.714-3.318-1.608-9.189-0.706-14.477c0.353-2.07,1.527-4.084,2.119-6.357
			c1.493-5.736,2.02-11.351,4.237-15.892c1.782-3.646,5.3-8.028,8.475-11.652c4.5-5.139,7.303-9.788,13.771-12.006
			c8.737-8.205,23.034-13.162,34.252-19.068c3.188-1.68,6.582-3.404,10.594-4.943c0.621-0.084,0.805-0.606,0.705-1.412
			c4.225-0.014,5.25-3.226,9.182-3.531c0.65-0.526,1.239-1.114,1.766-1.766c13.724-5.215,26.855-15.222,41.314-19.773
			c4.703-3.301,9.83-6.18,15.537-8.475c5.044-4.608,12.771-6.533,18.009-10.947c2.289,0.089,3.912-2.098,5.649-1.414
			c6.803-6.262,16.939-9.188,24.013-15.184c10.313-3.928,18.617-9.865,28.602-14.125c1.258-0.968,3.039-2.529,4.59-2.119
			c-0.756-1.423-1.666-1.254-3.531-1.059c-9.816-4.918-19.358-15.963-14.477-31.075c4.275-5.258,7.055-12.014,14.83-13.771
			c-1.865-7.281-0.555-15.961,3.178-21.188c1.387-0.734,3.18-1.059,3.18-3.178c2.723-1.868,6.412-2.768,10.24-3.531
			c11.066,1.127,22.553,3.615,33.898,6.356c2.695-3.914,5.023-9.429,9.533-11.653c1.463-0.721,3.66,0.15,4.592-1.766
			c4.99-2.065,9.059,0.64,13.771,1.766c1.645,0.393,3.568,0.062,5.295,0.354c8.188,1.377,15.971,6.017,24.014,6.002
			c5.068,1.293,7.924,4.843,11.652,8.121c2.807,2.471,5.848,3.282,6.354,7.77c7.119,6.761,6.262,24.195,3.887,33.898
			c-1.812,4.311-3.807,8.437-5.65,12.713c-3.064,3.41-6.348,6.6-8.828,10.593c-4.174,1.475-5.623,5.676-10.594,6.356
			c-1.682,1.498-3.182,3.176-6.002,3.53C392.604,160.641,381.021,163.769,373.53,170.993z M334.688,74.241
			c-1.771-0.396-3.594-1.49-5.297-1.767c-1.957-0.315-4.91,0.234-7.416,0c-2.158-0.202-4.225-0.905-5.646-0.706
			c-4.141,0.581-6.158,4.512-9.535,6.004c-0.193,3.133-3.338,4.367-3.885,7.414c-0.379,2.1-0.482,6.506-0.355,8.122
			c0.48,5.943,5.582,9.978,9.535,12.712c15.455,3.135,36.385,5.771,50.143,9.887c2.621,0.785,4.055,3.215,6.002,4.592
			c1.125,2.749,3.428,8.972-0.354,10.593c0.932-5.878-1.697-10.606-5.648-12.712c-18.236-4.363-38.014-7.188-55.086-12.712
			c-2.219-1.449-2.502-4.763-4.941-5.296c-3.299-0.721-4.771,2.789-8.123,3.178c-3.094,3.499-4.645,8.539-6.355,13.418
			c-0.123,3.674-0.088,7.193,1.766,10.594c0.389,0.713,2.047,1.695,3.178,3.178c1.158,1.519,1.678,3.483,2.473,4.237
			c2.146,2.036,10.732,6.65,13.418,6.709c2.963,0.064,6.322-2.087,9.535-2.118c11.443-0.115,21.17,1.672,29.307,5.295
			c1.828,0.814,3.271,2.597,4.945,3.179c0.574,0.2,1.883-0.29,2.471,0c0.584,0.288,1.227,1.501,2.119,2.118
			c3.383,2.336,7.018,4.441,8.477,8.476c0.854,1.478,1.562-0.783,2.117,0.707c1.039,2.843,2.586,5.185,3.885,7.769
			c14.738-7.623,28.457-16.272,42.02-25.071c1.699-3.714,5.004-5.825,7.77-8.476c5.512-9.258,11.113-21.468,8.475-34.957
			c-3.203-16.377-17.908-26.59-35.311-28.603c-9.281-3.356-20.559-8.274-31.781-3.884c-2.146,2.748-6.154,4.673-7.414,8.828
			c-1.314,4.336-0.23,9.129-0.355,13.771c1.396,2.917,3.285,4.646,4.943,6.709c0.875,1.086,0.975,2.28,1.766,2.825
			c2.824,1.943,9.285,2.158,14.125,3.531c8.062,2.285,14.855,3.686,20.834,6.355c2.889,2.997,3.824,7.946,4.592,13.064
			c-0.938,0.713-0.949,2.347-2.824,2.119c0.168-5.543-0.035-11.736-4.945-14.125c-2.564-1.248-6.959-1.72-10.945-2.824
			c-5.195-1.439-10.619-3.031-14.83-4.237c-1.379-0.396-3.131-0.332-4.238-0.707c-8.572-2.897-12.242-12.165-12.006-22.952
			C346.753,76.635,339.769,75.377,334.688,74.241z M320.212,142.745c-3.314-0.041-7.357-0.287-10.24,1.412
			c-0.41,0.295-0.945,0.466-1.766,0.354c-4.646,0.535-7.713,2.645-10.947,4.59c-0.117,0-0.234,0-0.352,0
			c-1.398,0.604-2.973,1.032-3.887,2.119c-0.117,0-0.232,0-0.354,0c-18.157,9.266-35.207,19.643-53.319,28.955
			c1.696,1.247,5.264,0.623,7.062,1.766c1.973-0.088,2.5,1.269,3.885,1.767c3.543,0.812,4.555,4.155,7.769,5.297
			c0,0.118,0,0.235,0,0.353c4.218,5.082,8.388,10.209,10.241,17.656c0.381,1.031,0.789,2.034,0.705,3.531
			c0.604,1.752-0.008,4.716,1.061,6.003c0.486,0.455,0.351,1.534,0.353,2.472c0,3.649,0,7.297,0,10.946
			c-0.17,1.832,0.381,4.382-0.353,5.649c-1.317,3.744-0.803,9.319-1.766,13.418c0,0.235,0,0.472,0,0.707
			c-0.939,1.649-0.771,4.408-1.061,6.709c-0.07,1.342-0.313,2.513-0.707,3.531c-0.532,0.996-0.625,2.438-0.707,3.883
			c0.345,2.109-0.832,2.701-0.707,4.592c-1.067,0.932-0.606,3.393-0.704,5.296c0,0.118,0,0.235,0,0.353
			c-0.668,0.862-0.759,2.303-0.707,3.885c0.248,1.541-0.601,1.988-0.354,3.531c-0.555,1.797-1.195,3.51-2.117,4.943
			c0,0.119,0,0.236,0,0.355c-0.537,1.229-1.109,2.422-1.06,4.236c0.204,1.146-0.242,1.643-0.354,2.473
			c-0.599,0.932-1.045,2.014-1.059,3.529c0.151,1.447-0.326,2.264-0.706,3.178c0.128,1.768,2.587-1.354,3.884-2.117
			c2.891-1.699,6.943-3.258,10.594-6.002c3.525-2.652,6.98-5.244,9.534-7.064c0.117,0,0.234,0,0.354,0
			c3.879-2.479,7.836-4.875,11.301-7.769c0.117,0,0.234,0,0.352,0c2.662-1.692,5.256-3.455,7.77-5.297c0.117,0,0.236,0,0.355,0
			c2.029-1.617,4.615-2.679,6.354-4.59c0.117,0,0.234,0,0.355,0c1.396-0.484,2.549-1.218,3.529-2.119c0.117,0,0.236,0,0.355,0
			c1.781-0.688,2.951-1.992,4.236-3.178c0.115,0,0.234,0,0.354,0c2.346-1.656,4.736-3.268,7.062-4.943
			c1.109-0.303,1.49-1.334,2.824-1.412c3.115-2.063,5.861-4.498,8.828-6.709c0.117,0,0.236,0,0.354,0
			c10.867-6.555,19.955-14.885,27.895-24.365c0-0.117,0-0.235,0-0.354c2.131-2.343,3.527-5.418,4.945-8.475c0-0.118,0-0.235,0-0.354
			c0.9-0.863,1.207-2.324,1.766-3.531c2.062-7.137,4.24-13.91,3.529-22.951c-1.297-2.768,0.068-6.129-1.412-8.828
			c0-0.234,0-0.471,0-0.706c-0.457-1.31-0.412-3.12-1.412-3.884c-0.02-0.452-0.453-0.489-0.354-1.061
			c-0.258-2.447-1.254-4.158-1.766-6.354c-0.408-0.886-1.406-1.183-1.412-2.472c-4.797-6.385-9.557-12.807-17.303-16.243
			c-1.109,0.169-1.381-0.503-2.117-0.706c-6.498-4.122-16.084-6.553-26.131-6.004C322.015,143.444,321.015,142.916,320.212,142.745z
			 M231.933,403.695c0.995-3.533,1.515-7.598,2.119-11.299c0.63-3.859,1.981-7.24,2.825-10.947
			c0.972-4.266,1.142-8.596,2.119-12.711c0.906-3.816,2.744-7.16,3.884-10.947c1.659-5.516,1.604-11.549,4.237-16.596
			c0.748-7.225,3.342-14.217,4.59-21.539c0.56-3.275,0.416-6.619,1.061-9.889c1.27-6.457,3.822-13.615,4.943-19.42
			c1.723-8.92,4.701-18.771,6.002-27.898c2.848-19.959,8.191-45.504-1.412-63.914c-4.292-5.241-8.667-10.4-14.831-13.771
			c-4.519,0.92-9.336-3.399-12.358-2.118c-4.541,1.924-9.631,4.981-14.478,7.769c-4.884,2.807-9.817,5.679-13.772,8.475
			c13.272,5.604,21.375,18.097,20.127,38.136c-0.375,6.026-2.109,12.008-2.471,17.303c-0.424,6.223-0.29,12.488-3.178,16.949
			c1.497,3.918-0.564,7.614-1.766,12.71c-0.729,3.098-0.414,6.619-1.06,9.539c-1.303,5.887-3.442,10.621-4.237,15.889
			c-0.168,1.119,0.127,2.34,0,3.531c-1.845,17.17-8.007,33.875-9.888,50.143c-2.771,3.178-2.497,7.572-3.53,12.006
			c-1.822,7.809-5.343,18.195-5.649,26.131c10.327,5.68,20.44,11.574,31.78,16.244C227.919,412.168,230.777,407.803,231.933,403.695
			z M220.986,215.485c-1.841-3.836-4.619-8.113-8.475-10.593c-2.816-1.811-7.452-4.114-10.593-3.884
			c-2.035,0.148-4.816,2.488-7.063,3.531c-2.128,0.988-4.513,1.258-6.355,2.117c-1.728,0.808-2.883,2.35-4.237,3.179
			c-2.806,1.718-6.31,3.084-9.534,4.59c-4.5,2.104-8.127,5.021-11.652,5.297c-11.256,7.224-24.27,12.69-36.724,18.715
			c-1.2-0.022-0.541,1.814-1.766,1.767c-20.46,9.201-35.303,24.02-39.549,49.437c0,0.117,0,0.234,0,0.355
			c-0.808,0.604-0.13,2.695-0.353,3.885c0,0.117,0,0.234,0,0.352c-1.234,4.217-0.213,8.799,0.353,13.064c0,0.119,0,0.236,0,0.354
			c7.243,33.719,34.985,46.938,58.97,63.914c3.279,0.66,4.658,2.885,6.709,4.238c2.124,1.4,5.16,1.838,7.062,3.178
			c0.772,0.545,1.012,1.875,1.766,2.471c1.232,0.979,3.451,1.646,4.943,2.473c5.469,3.027,12.125,7.008,16.243,10.24
			c3.916-0.398,9.095,8.492,12.007,2.471c-0.027-0.615,0.078-1.098,0.353-1.412c0.817-1.889,1.386-4.025,1.765-6.354
			c0-0.117,0-0.234,0-0.355c0.876-1.24,1.596-2.641,1.413-4.941c0-0.117,0-0.236,0-0.354c0.478-2.348,1.486-4.166,1.412-7.062
			c-0.112-0.82,0.058-1.355,0.354-1.768c0.791-1.561,0.953-3.754,1.412-5.648c0-0.117,0-0.236,0-0.354
			c0.408-1.357,1.098-2.434,2.824-2.473c-1.027-3.521,0.48-6.867,0.706-10.24c0-0.117,0-0.234,0-0.352
			c0.714-2.699,1.539-5.289,1.767-8.477c0-0.117,0-0.234,0-0.354c2.263-4.211,2.146-10.801,3.531-15.891c0-0.117,0-0.236,0-0.354
			c0.729-1.506,1.082-3.389,1.059-5.648c-0.254-1.08,0.361-1.287,0.354-2.119c1.057-2.004,0.766-5.355,1.413-7.768
			c-0.026-0.617,0.079-1.1,0.353-1.414c0.664-3.104,1.295-6.238,1.767-9.535c0-0.115,0-0.234,0-0.352
			c0.735-1.973,1.001-4.414,1.412-6.709c0-0.117,0-0.236,0-0.355c1.112-4.418,2.468-8.598,3.178-13.418
			c-0.53-0.572-0.53-2.607,0-3.178c1.212-2.202,1.87-4.958,1.767-8.476c0-0.117,0-0.235,0-0.354
			c1.189-2.107,1.537-6.934,1.766-8.828c-0.409-0.521-0.409-0.891,0-1.413c0.96-4.987,0.161-8.934,1.413-14.478
			c0.096-1.199-0.274-2.862,0.353-3.531c1.377-6.117,1.918-17.025-0.353-22.6c0-0.117,0-0.235,0-0.354
			c0.124-2.008-0.847-2.919-1.767-3.884C220.986,215.72,220.986,215.603,220.986,215.485z M394.011,305.531
			c2.213-0.99,3.482,0.752,5.297,1.059c8.648,1.467,18.463-5.76,19.068-13.77c0.555-7.35-4.838-12.473-8.828-16.953
			c-24.67-6.299-50.732-8.289-77.686-12.358C351.819,278.276,372.784,292.037,394.011,305.531z M356.228,342.961
			c2.299,0.998,3.141,3.451,4.59,5.297c3.727,0.482,6.119,2.809,9.535,2.824c5.791,0.029,11.99-5.494,12.713-11.299
			c0.646-5.193-1.244-9.582-2.119-14.125c-4.434-5.076-8.195-11.037-12.713-15.891c-2.723-2.926-5.848-5.082-8.475-8.121
			c-10.863-12.57-20.936-26.127-33.898-36.725C335.138,291.781,346.522,316.529,356.228,342.961z M294.433,345.434
			c1.148-7.623-1.588-14.422-6.002-17.656c-3.002,0.586-5.199-1.793-8.12-2.119c-3.973-0.443-9.346,0.957-14.125,1.412
			c-5.033,0.48-9.389,0.576-13.771,1.059c-0.537,0.994-0.336,2.727-0.707,3.885c0,0.119,0,0.236,0,0.355
			c-0.764,1.236-1.057,2.945-1.412,4.59c0.111,0.82-0.057,1.355-0.354,1.766c-1.169,3.305-2.324,6.621-2.824,10.594
			c8.358-0.717,16.637-3.014,24.365-1.412c2.773,7.008-3.24,13.143-4.592,19.42c0,0.119,0,0.236,0,0.355
			c-1.049,3.422-2.531,6.412-3.883,9.533c2.434,0.645,5.639,0.156,9.533,0.705c4.619,0.65,12.233,3.646,12.358-1.412
			c0-0.117,0-0.236,0-0.352c3.338-9.801,9.029-19.541,9.533-30.018C294.433,345.902,294.433,345.668,294.433,345.434z
			 M259.476,376.859c0.872-1.219,2.425-3.338,1.767-4.943c-7.867,0.133-12.856,5.293-10.947,13.064c0,0.119,0,0.236,0,0.354
			c1.535,5.527,5.228,8.896,12.359,8.828c0.116,0,0.236,0,0.354,0c5.23,1.242,10.622,2.326,16.596,2.824c0.117,0,0.234,0,0.354,0
			c1.783,0.334,3.245,0.992,5.649,0.707c0.234,0,0.469,0,0.705,0c5.117,0.768,10.945,0.824,16.598,1.059c0.234,0,0.471,0,0.707,0
			c0.836,0.812,3.168,0.127,4.59,0.354c0.119,0,0.234,0,0.354,0c0.865,0.547,2.299,0.527,3.531,0.707c0.117,0,0.234,0,0.354,0
			c5.211-0.91,10.316-1.926,10.594-7.77c-0.418-2.582,0.08-4.486-1.061-6.709c-2.922-6.26-13.762-6.482-20.834-7.416
			c-0.117,0-0.234,0-0.354,0c-2.201,0.322-3.24-0.525-4.943-0.705c-0.869,0.047-1.701,0.053-2.117-0.354
			c-1.789-0.564-3.076-1.635-5.65-1.412c-0.916,2.143-1.402,4.719-2.824,6.355c-1.885,0-3.767,0-5.649,0c-0.117,0-0.236,0-0.354,0
			c-0.836-0.812-3.168-0.127-4.59-0.354c-1.803,0.531-4.844-0.502-7.063-0.705c-1.86-0.73-3.657-1.523-6.356-1.412
			C259.574,379.586,259.693,378.055,259.476,376.859z M276.427,422.059c-3.549-4.381-9.617-6.092-14.831-8.828
			c-5.893-3.094-11.973-6.551-18.361-8.475c-2.219-1.902-5.021-3.219-8.123-4.238c-0.627,2.197-1.57,4.08-1.766,6.709
			c0,0.119,0,0.236,0,0.354c-0.948,0.816-0.744,2.787-1.412,3.885c0,0.117,0,0.234,0,0.354c-1.189,2.105-1.592,5-2.119,7.77
			c6.344,4.367,14.271,7.152,21.541,10.594c-0.145,0.85,0.645,0.768,0.354,1.766c3.188,0.229,4.645,2.637,3.179,5.65
			c-6.906,6.041-14.782,11.113-21.894,16.947c5.172,3.422,9.354,7.832,14.478,11.301c0.117,0,0.235,0,0.353,0
			c0,0.117,0,0.236,0,0.354c2.896,2.08,7.646-3.998,10.595-6.004c9.224-6.271,18.034-13.496,22.245-22.598
			c-0.303-1.268,1-2.736,0.354-3.18c0-0.234,0-0.471,0-0.705c0.586-0.84,0.586-4.105,0-4.945c0-0.115,0-0.234,0-0.352
			c-0.016-3.518-3.053-4.01-4.59-6.004C276.427,422.293,276.427,422.176,276.427,422.059z M230.521,452.072
			c1.325-0.793,3.003-1.234,3.531-2.824c-6.417-5.076-15.158-1.473-16.597,6.002c0,0.117,0,0.236,0,0.354
			c-0.586,0.609-0.586,3.629,0,4.238c0.381,1.266,0.889,2.406,1.061,3.883c2.432,3.926,6.682,6.031,9.887,9.184
			c0,0.115,0,0.234,0,0.354c7.065,6.117,14.192,12.174,22.248,17.303c0.116,0,0.234,0,0.353,0c4.603,3.637,8.694,7.781,14.477,10.24
			c0.119,0,0.236,0,0.354,0c3.625,2.158,9.154,0.912,10.594-2.826c0.076-1.334,1.109-1.715,1.412-2.824
			c1.111-1.781,1.242-4.32,0.707-6.002c-1.809-5.672-12.045-12.598-15.893-14.832c-2.176-2.885-4.563-5.557-7.414-7.768
			c-2.574,0.604-3.404,2.951-6.004,3.529c-7.369-4.639-14.365-9.645-19.773-16.242c0.523-0.299,0.511-1.137,0.707-1.766
			C230.285,452.072,230.402,452.072,230.521,452.072z"/>
		<path d="M321.269,162.166c0.674-0.661,0.891-0.038,1.77,0c11.863,1.786,19.605,7.7,25.068,15.89c0,0.118,0,0.236,0,0.354
			c0.969,1.857,1.072,4.576,2.475,6.002c0.271,0.314,0.379,0.798,0.352,1.412c1.035,5.359,2.629,12.334,1.061,17.304
			c-0.691,2.604-1.928,4.664-3.178,6.709c-3.65,6.237-9.215,10.56-15.186,14.478c-0.117,0-0.234,0-0.354,0
			c-1.375,0.393-2.555,0.978-3.529,1.766c-0.41,0.297-0.947,0.467-1.768,0.354c-2.061,0.529-5.186-0.005-7.062,0.707
			c-0.117,0-0.236,0-0.354,0c-0.814-0.792-3.006,0.037-3.885,0.354c-0.234,0-0.471,0-0.705,0
			c-9.896-1.521-15.578-7.256-21.541-12.713c0-0.117,0-0.235,0-0.354c-0.889-2.053-2.098-3.786-3.531-5.296c0-0.118,0-0.236,0-0.353
			c-0.586-1.18-0.053-3.479-1.059-4.237c0-0.118,0-0.235,0-0.354c-0.865-2.901-2.484-5.049-3.18-8.122
			c-0.797-0.763,0.293-1.205,0-2.472c0.414-1.043,1.08-3.165,0.355-4.237c-0.256-1.785,0.389-2.671,1.059-3.531
			c1.279-0.838,0.486-3.75,0.707-5.649c5.311-6.577,10.4-13.375,19.42-16.243c0.418-0.406,1.248-0.398,2.119-0.354
			C313.142,162.278,318.319,163.335,321.269,162.166z M305.733,166.049c0.553,2.389-3.438,2.782-5.297,3.884
			c-4.834,5.17-8.881,11.13-10.945,19.068c4.309,2.067,10.264,2.667,15.535,2.825c1.822-7.536,6.861-13.135,15.186-13.065
			c0.145-4.967,2.588-9.347,2.119-13.771C315.813,163.981,310.562,167.694,305.733,166.049z M348.462,198.536
			c0,0.117,0,0.236,0,0.354c1.225-0.283,1.355,0.526,2.471,0.354c0.521-2.051-0.705-2.355-1.059-3.531
			c0.586-11.676-6.291-21.617-14.125-27.189c-3.674-0.563-5.711-2.764-9.889-2.824c-1.934,3.48-2.152,8.674-3.178,13.064
			c7.756,1.811,12.666,8.241,12.357,16.949c0.291-1.803,1.518,0.574,2.473,0.354c0.471,0,0.941,0,1.412,0c0.354,0,0.707,0,1.061,0
			c0.094,0.496,0.773,0.402,1.061,0.707c1.709,0.762,3.852,1.09,6.004,1.411C347.663,198.157,348.146,198.261,348.462,198.536z
			 M308.558,189.708c-2.314,5.129,1.287,10.104,1.768,13.418c4.902,6.673,21.629,4.909,21.188-4.944
			c2.779-2.611,0.346-10.052-1.766-12.712c-2.783-3.506-8.48-3.701-13.066-3.884c-3.326,1.969-7.18,3.414-8.121,7.77
			C308.558,189.472,308.558,189.591,308.558,189.708z M308.206,222.196c2.553-0.481,3.312-11.293,5.297-14.479
			c-1.686-0.67-3.439-1.271-4.236-2.825c-0.08-0.668,0.396-0.778,0.352-1.413c-3.969-0.975-3.811-6.076-5.648-9.181
			c-4.748-0.549-9.502-1.343-13.42-1.767c-2.537,3.063,0.096,8.084,1.414,10.595c0,0.118,0,0.235,0,0.353
			c1.178,5.766,5.771,8.117,7.414,13.418c3.227,1.364,5.371,3.812,8.475,5.297C307.97,222.196,308.089,222.196,308.206,222.196z
			 M315.974,209.835c-1.623,4.159-3.955,9.444-3.178,14.831c20.072,1.775,32.705-8.365,36.369-22.952
			c-4.344-1.188-8.242-2.822-13.771-2.825C332.464,205.893,326.577,211.661,315.974,209.835z"/>
	</g>
</g>
</svg>
