<?xml version="1.0" encoding="utf-8"?>
<!-- Generator: Adobe Illustrator 16.0.0, SVG Export Plug-In . SVG Version: 6.00 Build 0)  -->
<!DOCTYPE svg PUBLIC "-//W3C//DTD SVG 1.1//EN" "http://www.w3.org/Graphics/SVG/1.1/DTD/svg11.dtd">
<svg version="1.1" id="Layer_1" xmlns="http://www.w3.org/2000/svg" xmlns:xlink="http://www.w3.org/1999/xlink" x="0px" y="0px"
	 width="201.557px" height="54.588px" viewBox="7.151 9.041 201.557 54.588" enable-background="new 7.151 9.041 201.557 54.588"
	 xml:space="preserve">
<g>
	<path d="M7.151,23.095c0-0.844,0.664-1.447,1.448-1.447c0.784,0,1.448,0.604,1.448,1.447V39.2c0,5.066,4.041,9.107,9.047,9.168
		c5.067-0.061,9.168-4.102,9.168-9.168V23.095c0-0.844,0.724-1.447,1.448-1.447c0.844,0,1.508,0.604,1.508,1.447V39.2
		c0,6.635-5.368,12.062-12.124,12.062c-6.635,0-11.943-5.429-11.943-12.062V23.095z"/>
	<path d="M44.724,36.969v-0.604v-0.604V23.155c0-0.784,0.664-1.447,1.448-1.447c0.845,0,1.508,0.663,1.508,1.447v4.283
		c2.534-3.438,6.635-5.73,11.219-5.73c7.962,0,14.295,6.574,14.295,14.657c0,8.022-6.333,14.718-14.295,14.718
		c-4.584,0-8.686-2.292-11.219-5.791v16.891c0,0.783-0.663,1.446-1.508,1.446c-0.784,0-1.448-0.663-1.448-1.446V36.969z
		 M47.68,36.365c0,6.515,5.127,11.762,11.219,11.821c6.273-0.061,11.34-5.308,11.34-11.821c0-6.514-5.067-11.702-11.34-11.702
		c-5.971,0-10.978,4.946-11.219,11.22V36.365z"/>
	<path d="M84.528,37.149v-0.604v-0.603V10.489c0-0.784,0.664-1.448,1.448-1.448c0.845,0,1.508,0.664,1.508,1.448v17.009
		c2.594-3.498,6.695-5.79,11.34-5.79c7.962,0,14.295,6.635,14.295,14.838c0,8.083-6.333,14.719-14.295,14.719
		c-4.645,0-8.746-2.231-11.34-5.73v4.283c0,0.783-0.663,1.447-1.508,1.447c-0.784,0-1.448-0.664-1.448-1.447V37.149z M87.484,36.546
		c0,6.516,5.127,11.762,11.34,11.762c6.273,0,11.34-5.246,11.34-11.762c0-6.574-5.066-11.883-11.34-11.883
		c-6.092,0-11.098,5.067-11.34,11.4V36.546z"/>
	<path d="M122.222,36.546c0-8.203,6.394-14.838,14.354-14.838c7.6,0,13.631,6.031,14.235,13.752v0.061v0.181
		c0,0.784-0.663,1.327-1.446,1.327h-24.248c0.301,6.455,5.368,11.34,11.459,11.34c3.922,0,7.541-2.052,9.53-5.368
		c0.422-0.725,1.327-0.845,1.931-0.482c0.664,0.482,0.904,1.328,0.481,2.051c-2.533,4.041-6.937,6.695-11.942,6.695
		C128.616,51.265,122.222,44.629,122.222,36.546z M125.297,34.193h22.379c-0.965-5.549-5.67-9.59-11.1-9.59
		C131.028,24.604,126.383,28.584,125.297,34.193z"/>
	<path d="M185.853,23.155v26.66c0,0.785-0.663,1.447-1.448,1.447c-0.783,0-1.447-0.662-1.447-1.447v-4.402
		c-2.533,3.498-6.574,5.852-11.099,5.852c-7.78,0-13.993-6.695-13.993-14.779c0-8.082,6.213-14.777,13.993-14.777
		c4.524,0,8.565,2.292,11.099,5.79v-4.343c0-0.845,0.664-1.447,1.447-1.447C185.189,21.708,185.853,22.311,185.853,23.155z
		 M182.958,36.485c0-6.635-5.006-11.942-11.1-11.942c-6.031,0-11.1,5.308-11.1,11.942c0,6.636,5.066,11.883,11.1,11.883
		C177.952,48.368,182.958,43.121,182.958,36.485z"/>
	<path d="M208.708,23.155c0,0.724-0.724,1.448-1.447,1.448h-3.801v21.533c0,1.447,1.449,2.172,2.172,2.172
		c0.725,0,1.508,0.783,1.508,1.508s-0.783,1.447-1.508,1.447c-2.955,0-5.188-2.172-5.188-5.127V24.604h-3.679
		c-1.448,0-1.448-0.725-1.448-1.448c0-0.723,0-1.447,1.448-1.447h3.679V10.73c0-0.724,0.726-1.448,1.448-1.448
		c0.783,0,1.568,0.724,1.568,1.448v10.978h3.799C207.984,21.708,208.708,22.432,208.708,23.155z"/>
</g>
</svg>
